<?xml version="1.0" encoding="UTF-8"?>
<svg id="Capa_1" data-name="Capa 1" xmlns="http://www.w3.org/2000/svg" viewBox="0 0 382.52 383.02">
  <defs>
    <style>
      .cls-1 {
        fill: #020202;
      }

      .cls-1, .cls-2, .cls-3, .cls-4, .cls-5, .cls-6, .cls-7, .cls-8, .cls-9, .cls-10, .cls-11, .cls-12, .cls-13, .cls-14, .cls-15 {
        stroke-width: 0px;
      }

      .cls-2 {
        fill: #f0d100;
      }

      .cls-3 {
        fill: #fdd6a4;
      }

      .cls-4 {
        fill: #88d4f1;
      }

      .cls-5 {
        fill: #b5e4f8;
      }

      .cls-6 {
        fill: #f29301;
      }

      .cls-7 {
        fill: #ef5374;
      }

      .cls-8 {
        fill: #fdfdfd;
      }

      .cls-9 {
        fill: #0e1214;
      }

      .cls-10 {
        fill: #fce8d1;
      }

      .cls-11 {
        fill: #e11743;
      }

      .cls-12 {
        fill: #fbac42;
      }

      .cls-13 {
        fill: #f9e01c;
      }

      .cls-14 {
        fill: #feead2;
      }

      .cls-15 {
        fill: #030303;
      }
    </style>
  </defs>
  <path class="cls-1" d="M174.53,383.02c.05-12.71.25-25.42.07-38.13-.06-4.53.61-8.61,3.29-12.27,1.69-2.32,2.08-4.87,2.08-7.72-.06-49.36-.07-98.73,0-148.09,0-2.82-.46-5.09-2.82-6.79-1.96-1.42-2.58-3.31-2.54-5.79.16-8.97.17-17.95,0-26.92-.05-2.55.88-4.1,2.72-5.65,9.54-8.02,18.95-16.19,28.51-24.18,1.81-1.51,2.43-3.05,2.43-5.38-.08-32.66.02-65.32-.15-97.98-.02-3.58,1.1-4.15,4.31-4.11,15.96.16,31.92.15,47.88,0,2.85-.03,3.43.72,3.43,3.48-.1,32.78-.04,65.57-.11,98.35,0,2.43.63,4.07,2.57,5.68,9.67,8.06,19.14,16.35,28.79,24.44,1.7,1.43,2.34,2.87,2.3,5.07-.13,7.48.11,14.96-.13,22.43-.09,3.02.57,3.91,3.78,3.89,25.56-.15,51.12-.09,76.69-.08,1.37,0,2.74.05,4.11.07.04,25.61.07,51.22.17,76.82,0,1.23-.82,2.72.63,3.75v2.24c-1.47,2.11-1.11,4.65-1.66,6.98-4.65,19.69-16.22,33.49-35.01,41.13-1.63.66-3.03,1.01-3.01,3.45.14,16.2.1,32.4.03,48.6,0,1.79.5,2.36,2.31,2.32,4.86-.11,9.72-.09,14.58-.02,9.38.12,16.61,7.17,16.78,16.48.11,5.98,0,11.96-.02,17.94h-28.43c-.03-2-.05-4.01-.08-6.01q.28-5.21,5.78-5.21c2.24,0,4.48,0,6.72,0q4.89,0,4.84-4.91c-.05-4.86-1.83-7.05-6.14-7.05-20.42-.01-40.83.06-61.25.1-1.85-.04-3.71-.2-5.55-.09-4.36.26-5.74,2.8-5.68,9.37.04,4.73,3.48,2.07,5.33,2.49,1.87.42,3.93.02,5.9-.02,3.68.04,7.36.1,11.04.11,5.31.02,5.31,0,5.59,5.23-.06,2-.11,4-.17,6h-139.91ZM229.95,22.42c4.85.05,9.69.13,14.54.14,9.01.02,8.95.01,8.4-8.99-.11-1.82-.7-2.32-2.43-2.3-6.84.11-13.67.11-20.51.16-2.85-.04-5.7-.04-8.55-.14-1.55-.06-2.1.48-2.25,2.1-.84,9.25-.89,9.25,8.2,9.17.87,0,1.73-.09,2.6-.14ZM229.96,33.95c-2.49-.05-4.99.04-7.46-.19-2.62-.24-3.4.71-3.36,3.33.14,10.46.06,20.92.06,31.38q0,10.7,10.78,9.84c6.84.06,13.68.08,20.52.2,1.82.03,2.37-.72,2.36-2.43-.04-13.32-.04-26.63,0-39.95,0-1.77-.59-2.39-2.38-2.36-6.84.12-13.69.13-20.53.18ZM291.26,174.64c-.86-.05-1.72-.15-2.59-.15q-7.81-.06-7.81,7.6,0,9.87,10.38,9.31c6.35.04,12.71.11,19.06.12,19.07.02,38.13-.05,57.2.07,2.66.02,3.42-.73,3.24-3.31-.23-3.35-.23-6.74,0-10.08.19-2.81-.51-3.86-3.6-3.78-9.47.22-18.94.06-28.41.09-15.82.04-31.65.1-47.47.15ZM224.65,214.18c-2.37-.04-4.75.1-7.09-.18-2.96-.36-3.45.91-3.43,3.58.12,16.32.14,32.65-.01,48.97-.03,3,.85,3.7,3.74,3.67,17.2-.13,34.4-.05,51.61-.05.04,2.99,0,5.98.16,8.96.1,1.82-.55,2.3-2.32,2.29-21.44-.09-42.88-.11-64.32-.15.01-26.13.02-52.26.03-78.39,21.06-.02,42.12-.1,63.17,0,2.68.01,3.59-.48,3.53-3.4-.2-10.71.03-21.43-.15-32.14-.05-3.12.47-4.6,3.99-4.16,2.82.35,5.74-.13,8.58.13,2.98.27,4.13-.44,3.95-3.74-.32-5.71-.2-11.46-.03-17.18.07-2.33-.61-3.87-2.43-5.39-9.74-8.15-19.33-16.49-29.05-24.67-1.58-1.33-2.24-2.67-2.18-4.73.14-5.1-.02-10.21.08-15.32.03-1.79-.24-2.69-2.38-2.63-6.72.19-13.45.16-20.17.22-2.74-.06-5.48-.04-8.2-.21-1.82-.11-2.34.56-2.31,2.34.1,5.1-.09,10.22.09,15.32.09,2.36-.68,3.86-2.48,5.36-9.55,7.99-18.96,16.16-28.49,24.17-1.85,1.55-2.8,3.13-2.7,5.67.22,5.47.21,10.96,0,16.44-.11,2.84.55,5.06,2.85,6.79,1.78,1.34,2.51,3.02,2.51,5.41-.08,52.69-.06,105.38-.06,158.07,0,1.49.12,3.01-.88,4.29-4.17,5.32-4.79,11.45-4.42,17.95.3,5.46.32,10.97-.03,16.43-.23,3.51,1.07,3.99,4.17,3.97,26.66-.12,53.33-.07,79.99-.07,5.51,0,5.45,0,5.62-5.67.06-2.1.47-4.19.72-6.28,1.96-3.97,4.45-7.47,8.58-9.47.75-.37,1.14-.83,1.12-1.7-.13-3.79.66-7.68-2-11.09-2.79-3.57-3.38-7.72-3.31-12.24.21-14.07-.03-28.16.14-42.23.06-4.83-.54-9.11-3.48-13.25-4.5-6.35-5.83-14.03-7.68-21.44,0-10.45-.03-20.91,0-31.36,0-1.71.13-3.08-2.4-3.06-14.2.15-28.41.14-42.61.18ZM333.33,285.93c18.78-1.77,36.44-20.66,37.15-40.4.48-13.43.12-26.88.25-40.33.02-2.03-.68-2.47-2.57-2.46-25.65.09-51.3.11-76.94.15-2.36-.04-4.73.07-7.07-.16-2.59-.26-3.37.6-3.34,3.26.15,11.93-.03,23.86.09,35.79.12,12.07,4.21,22.69,12.76,31.26,10.97,10.99,24.17,15.62,39.68,12.88ZM291.99,286.7c0,13.39.05,26.06-.05,38.72-.02,2.47.61,4.55,1.76,6.69,1.38,2.57,3.6,4.76,3.57,8.03-.02,2.7-1.21,6.31.47,7.89,1.83,1.72,5.44.39,8.27.55.37.02.75-.04,1.12.01,1.6.22,2.15-.37,2.14-2.05-.06-16.32-.05-32.64,0-48.96,0-1.45-.36-2.29-1.8-2.76-5.36-1.71-10.21-4.46-15.47-8.14ZM331.69,323.5c0-5.73.02-11.47-.01-17.2-.02-2.72.82-6.14-.51-7.94-1.26-1.71-4.9-.01-7.44-.47-2.61-.46-3.35.4-3.32,3.09.15,13.09.07,26.18.07,39.26,0,8.59,0,8.51,8.57,8.4,2.11-.03,2.73-.59,2.69-2.71-.12-7.48-.05-14.96-.05-22.44Z"/>
  <path class="cls-15" d="M336.88,383.02h-11.22c-.01-2-.02-4.01-.03-6.01q.32-5.21,5.77-5.21t5.67,5.23c0,1.78-.01,3.55-.02,5.33-.14.2-.19.42-.16.66Z"/>
  <path class="cls-9" d="M45.09,383.02c.04-.25.09-.5.13-.76,39.12,0,78.23,0,117.35,0,0,.25,0,.5,0,.75H45.09Z"/>
  <path class="cls-8" d="M325.63,377.01c.01,2,.02,4.01.03,6.01h-11.22c.06-2,.11-4,.17-6,3.67,0,7.35-.01,11.02-.02Z"/>
  <path class="cls-8" d="M337.04,382.36c0-1.78.01-3.55.02-5.33,3.66,0,7.31,0,10.97-.01.03,2,.05,4.01.08,6.01h-10.47c-.2-.22-.39-.44-.59-.66Z"/>
  <path class="cls-3" d="M382.52,243.91c-1.44-1.03-.62-2.52-.63-3.75-.1-25.61-.13-51.22-.17-76.82.27-.07.53-.14.79-.2v80.78Z"/>
  <path class="cls-5" d="M337.04,382.36c.2.22.39.44.59.66h-.75c-.03-.24.02-.46.16-.66Z"/>
  <path class="cls-15" d="M162.57,382.27c-39.12,0-78.23,0-117.35,0-.05-10.21-.2-20.43-.08-30.64.03-2.63-.69-3.28-3.28-3.26-6.35.04-12.72.52-19.05-.35-12.77-1.76-22.58-12.3-22.66-25.22-.19-31.53-.21-63.06,0-94.59.1-14.19,11.74-25.27,26-25.48,5.48-.08,10.97-.1,16.45.03,1.98.05,2.57-.55,2.51-2.51-.09-2.49-.44-4.78-1.35-7.2-3.81-10.09-2.34-19.51,5.32-27.26,7.61-7.7,16.91-9.64,27.12-5.84,2.12.79,3.03.64,4.4-1.27,11.73-16.26,35.58-15.39,46.31,1.68,1.21,1.93,1.93,2.34,4.1,1.13,10.54-5.91,23.09-3.84,31.02,4.86,7.98,8.76,8.94,21.35,2.23,31.34-1.12,1.66-1.5,3.28-1.5,5.21.04,24.18.03,48.35.03,72.53q0,5.64-5.47,5.96-5.77-.34-5.77-6.09c0-21.56,0-43.12,0-64.68,0-8.14,0-8.03-8.21-8.01-2.42,0-2.85.8-2.82,2.98.12,7.97.03,15.95.05,23.93.01,6.25-2.08,11.51-7.37,15.1-5.38,3.66-11.2,4.14-17.01,1.23-6.23-3.12-9.32-8.46-9.41-15.4-.1-8.35-.04-16.7-.02-25.05,0-1.56.19-2.82-2.23-2.78-12.59.18-25.17.16-37.76.2-2.36-.05-4.75.09-7.09-.19-2.84-.34-3.46.68-3.45,3.45.09,54.09.09,108.19,0,162.28,0,2.85.76,3.45,3.51,3.44,26.93-.11,53.86-.04,80.79-.1,3.57,0,8.54,1.63,10.37-.66,2.07-2.58.72-7.38.45-11.21.07-1.36.19-2.72.19-4.08.01-19.01,0-38.03,0-57.04q0-6.06,5.78-6.4,5.46.32,5.46,5.92c0,26.65,0,53.3,0,79.95,0,1.36-.15,2.72-.22,4.08ZM53.73,179.49c-.84,1.9-.71,3.89-.5,5.87.54,5.15,1.62,6.11,6.7,6.11,18.19,0,36.37.06,54.56-.07,2.78-.02,3.56.68,3.51,3.49-.16,10.58-.06,21.17-.02,31.75,0,1.86.05,3.74.34,5.57.35,2.19,1.96,3.44,3.98,4.02,2.1.59,3.94-.11,5.43-1.65,1.51-1.56,1.6-3.56,1.6-5.58,0-11.08.1-22.17-.07-33.25-.05-3.19.49-4.61,4.15-4.38,5.71.36,11.45.09,17.18.09,5,0,6.23-1.05,6.69-6.12.18-1.94.55-3.97-.61-5.81-1.36-5.57-5.13-8.64-10.51-9.82-5.49-1.2-10.3.48-13.56,4.92-1.85,2.52-3.51,2.99-6.13,1.96-.92-.36-1.91-.59-2.89-.7-2.44-.28-3.66-1.11-4.12-3.99-1.23-7.67-7.27-12.85-14.79-13.52-7.32-.65-13.96,3.42-16.92,10.37-1.5,3.53-9.04,5.68-12.15,3.47-8.3-5.92-18.72-2.47-21.9,7.25ZM11.29,275.34c0,15.21-.04,30.42.01,45.62.03,9.65,6.14,15.94,15.75,16.22,5.11.15,10.23-.06,15.34.07,2.1.06,2.71-.57,2.75-2.7.17-9.08.25-9.08-8.93-9.12-8.86-.03-13.54-4.73-13.54-13.64,0-24.18,0-48.37,0-72.55,0-9.71,4.4-14.11,14.12-14.13,8.56-.02,8.47-.02,8.36-8.63-.03-2.25-.81-2.64-2.8-2.59-4.86.13-9.73.03-14.59.04-10.31.03-16.43,6.15-16.46,16.52-.04,14.96,0,29.92,0,44.88ZM45.07,275.32v-31.41c0-7.61,0-7.47-7.8-7.65-2.79-.06-3.48.64-3.46,3.45.13,22.19.07,44.38.07,66.56,0,8.03,0,7.93,8.17,8,2.42.02,3.11-.59,3.08-3.05-.14-11.96-.06-23.93-.06-35.9Z"/>
  <path class="cls-14" d="M66.78,202.83c12.59-.05,25.18-.03,37.76-.2,2.41-.03,2.23,1.22,2.23,2.78-.02,8.35-.08,16.7.02,25.05.08,6.94,3.18,12.28,9.41,15.4,5.8,2.91,11.62,2.42,17.01-1.23,5.29-3.59,7.38-8.85,7.37-15.1-.02-7.98.07-15.95-.05-23.93-.03-2.18.4-2.98,2.82-2.98,8.21-.02,8.21-.14,8.21,8.01,0,21.56,0,43.12,0,64.68q0,5.75,5.77,6.09c0,3.64,0,7.29.01,10.93q-5.78.34-5.78,6.4c0,19.01,0,38.03,0,57.04,0,1.36-.12,2.72-.19,4.08-26.9,0-53.8-.02-80.71.02-2.32,0-3.95.03-3.94-3.21.11-43.82.1-87.65.12-131.47,2.96,0,5.92-.02,8.88.02,1.49.02,2.14-.52,2.33-2.12,1.05-8.67.71-9.11-7.93-9.11-1.11,0-2.22,0-3.33.01,0-3.72,0-7.44,0-11.16Z"/>
  <path class="cls-5" d="M229.92,89.87c6.72-.06,13.45-.04,20.17-.22,2.14-.06,2.41.84,2.38,2.63-.09,5.11.06,10.22-.08,15.32-.06,2.06.6,3.4,2.18,4.73,9.72,8.18,19.31,16.52,29.05,24.67,1.82,1.53,2.49,3.06,2.43,5.39-.16,5.73-.28,11.47.03,17.18.18,3.29-.97,4.01-3.95,3.74-2.84-.26-5.76.22-8.58-.13-3.53-.43-4.05,1.05-3.99,4.16.19,10.71-.05,21.43.15,32.14.06,2.92-.85,3.41-3.53,3.4-21.06-.09-42.11-.02-63.17,0-.02-4.59-.17-9.19-.01-13.78.13-3.93-.73-7.91.52-11.78,1.35,1.28,2.83,2.45,4.02,3.87,1.62,1.94,2.66,2.24,4.94.35,10.76-8.97,23.02-10.97,36.38-6.99,2.41.72,4.9,3.5,6.97,2.16,2.04-1.32,2.8-4.55,4.28-6.84,1-1.54.68-2.26-.92-3.06-5.62-2.8-11.5-4.64-17.76-5.2-14.69-1.31-27.36,3.38-38.41,12.9-.02-2.24-.17-4.49-.02-6.72.13-2.06-.44-3.75-2.14-4.85-3.57-2.32-3.74-5.68-4.06-9.58-.59-7.19,1.33-12.35,7.41-16.78,8.19-5.98,15.63-12.99,23.42-19.51,1.52-1.28,2.36-2.66,2.33-4.77-.11-7.47-.04-14.95-.03-22.42Z"/>
  <path class="cls-12" d="M291.21,202.89c25.65-.04,51.3-.06,76.94-.15,1.9,0,2.59.43,2.57,2.46-.12,13.44.24,26.9-.25,40.33-.71,19.74-18.37,38.63-37.15,40.4-16.09-2.73-27.96-11.35-36.11-25.43-6.44-11.13-6.52-23.22-5.85-35.47,2.98,0,5.95-.05,8.93.02,1.57.03,2.08-.58,2.23-2.16.84-9.07.83-9.13-8.32-9.05-.99,0-1.98.11-2.96.16-.01-3.7-.02-7.4-.03-11.1Z"/>
  <path class="cls-5" d="M269.67,248.42c1.85,7.41,3.17,15.1,7.68,21.44,2.94,4.14,3.54,8.42,3.48,13.25-.17,14.08.07,28.16-.14,42.23-.07,4.52.52,8.67,3.31,12.24,2.66,3.4,1.88,7.3,2,11.09.03.87-.36,1.33-1.12,1.7-4.12,2.01-6.62,5.5-8.58,9.47-10.44,0-20.88-.01-31.32-.01-14.79,0-29.58.01-44.37-.02-1.61,0-3.45.6-3.71-2.26-.7-7.6.52-14.5,6.06-20.18,19.78.02,39.56.04,59.34.06,7.99,0,7.85,0,8.01-7.83.06-2.82-.72-3.49-3.5-3.47-21.27.13-42.55.08-63.82.09,0-14.98,0-29.97,0-44.95,21.44.04,42.88.05,64.32.15,1.77,0,2.42-.47,2.32-2.29-.17-2.98-.12-5.97-.16-8.96,0-3.76,0-7.52-.01-11.28.07-3.49.15-6.99.22-10.48ZM207.72,309.7c.08,6.38-.82,5.7,4.52,5.74,6.85.04,6.85.01,6.85-4.51q0-6.84-4.5-6.85-6.86,0-6.86,5.62ZM235.95,315.24c6.38-.09,5.54.77,5.58-4.24.06-7.09.02-7.09-4.64-7.09q-6.72,0-6.72,5.03,0,6.3,5.77,6.3ZM258.67,303.91q-6.02,0-6.02,4.6,0,6.73,4.6,6.73,6.77,0,6.77-4.56,0-6.77-5.34-6.77Z"/>
  <path class="cls-4" d="M202.96,337.39c-5.53,5.67-6.76,12.58-6.06,20.18.26,2.86,2.1,2.25,3.71,2.26,14.79.03,29.58.02,44.37.02,10.44,0,20.88,0,31.32.01-.25,2.09-.65,4.18-.72,6.28-.18,5.67-.12,5.67-5.62,5.67-26.66,0-53.33-.05-79.99.07-3.1.01-4.4-.46-4.17-3.97.36-5.46.34-10.97.03-16.43-.36-6.5.25-12.62,4.42-17.95,1-1.28.88-2.79.88-4.29,0-52.69-.02-105.38.06-158.07,0-2.39-.73-4.08-2.51-5.41-2.3-1.72-2.96-3.95-2.85-6.79.21-5.47.21-10.97,0-16.44-.1-2.54.85-4.12,2.7-5.67,9.53-8.02,18.94-16.18,28.49-24.17,1.79-1.5,2.57-3,2.48-5.36-.19-5.1,0-10.21-.09-15.32-.04-1.78.49-2.45,2.31-2.34,2.73.17,5.47.15,8.2.21,0,7.47-.08,14.95.03,22.42.03,2.12-.8,3.5-2.33,4.77-7.79,6.53-15.23,13.54-23.42,19.51-6.08,4.43-8,9.59-7.41,16.78.32,3.89.49,7.26,4.06,9.58,1.69,1.1,2.27,2.79,2.14,4.85-.14,2.23,0,4.48.02,6.72-1.26,1.19.03,1.93.5,2.82-1.25,3.88-.39,7.86-.52,11.78-.15,4.59,0,9.19.01,13.78-.01,26.13-.02,52.26-.03,78.39,0,14.98,0,29.97,0,44.95,0,3.72-.02,7.43-.03,11.15Z"/>
  <path class="cls-7" d="M269.67,248.42c-.07,3.49-.15,6.99-.22,10.48-13.68-.01-27.37-.09-41.05.02-2.85.02-3.88-.64-3.84-3.71.17-13.68.09-27.36.1-41.03,14.2-.04,28.41-.03,42.61-.18,2.54-.03,2.41,1.34,2.4,3.06-.02,10.45,0,20.91,0,31.36Z"/>
  <path class="cls-5" d="M291.26,174.64c15.82-.05,31.65-.11,47.47-.15,9.47-.02,18.95.14,28.41-.09,3.1-.07,3.79.97,3.6,3.78-.22,3.35-.22,6.74,0,10.08.17,2.59-.58,3.33-3.24,3.31-19.07-.12-38.13-.05-57.2-.07-6.35,0-12.71-.08-19.06-.12,0-5.59,0-11.17.01-16.76Z"/>
  <path class="cls-11" d="M224.65,214.18c0,13.68.08,27.36-.1,41.03-.04,3.06,1,3.73,3.84,3.71,13.68-.12,27.37-.03,41.05-.02,0,3.76,0,7.52.01,11.28-17.2,0-34.41-.08-51.61.05-2.89.02-3.76-.68-3.74-3.67.15-16.32.13-32.65.01-48.97-.02-2.67.47-3.94,3.43-3.58,2.34.28,4.72.14,7.09.18Z"/>
  <path class="cls-7" d="M229.96,33.95c6.84-.05,13.69-.05,20.53-.18,1.79-.03,2.38.59,2.38,2.36-.05,13.32-.04,26.63,0,39.95,0,1.71-.54,2.46-2.36,2.43-6.84-.13-13.68-.14-20.53-.2,0-14.78,0-29.57-.01-44.35Z"/>
  <path class="cls-6" d="M291.37,225.02c-.67,12.25-.59,24.33,5.85,35.47,8.14,14.09,20.02,22.71,36.11,25.43-15.51,2.73-28.72-1.89-39.68-12.88-8.55-8.57-12.64-19.2-12.76-31.26-.12-11.93.05-23.86-.09-35.79-.03-2.65.75-3.51,3.34-3.26,2.34.23,4.72.12,7.07.16.01,3.7.02,7.4.03,11.1.04,3.68.09,7.36.13,11.03Z"/>
  <path class="cls-5" d="M348.03,377.01c-3.66,0-7.31,0-10.97.01q-.28-5.23-5.67-5.23t-5.77,5.21c-3.67,0-7.35.01-11.02.02-.28-5.23-.28-5.21-5.59-5.23-3.68-.01-7.36-.07-11.04-.11,0-3.92,0-7.83,0-11.75,20.42-.04,40.83-.11,61.25-.1,4.31,0,6.09,2.19,6.14,7.05q.05,4.91-4.84,4.91c-2.24,0-4.48,0-6.72,0q-5.5,0-5.78,5.21Z"/>
  <path class="cls-5" d="M331.69,323.5c0,7.48-.07,14.96.05,22.44.03,2.11-.58,2.68-2.69,2.71-8.57.11-8.57.19-8.57-8.4,0-13.09.08-26.18-.07-39.26-.03-2.7.72-3.55,3.32-3.09,2.55.45,6.19-1.24,7.44.47,1.33,1.8.49,5.23.51,7.94.04,5.73.01,11.47.01,17.2Z"/>
  <path class="cls-11" d="M229.96,33.95c0,14.78,0,29.57.01,44.35q-10.78.86-10.78-9.84c0-10.46.08-20.92-.06-31.38-.03-2.62.74-3.57,3.36-3.33,2.47.23,4.97.14,7.46.19Z"/>
  <path class="cls-7" d="M229.95,11.43c6.84-.04,13.67-.04,20.51-.16,1.73-.03,2.32.48,2.43,2.3.54,9,.6,9.02-8.4,8.99-4.85-.01-9.69-.09-14.54-.14,0-3.66,0-7.33,0-10.99Z"/>
  <path class="cls-4" d="M291.26,174.64c0,5.59,0,11.17-.01,16.76q-10.38.56-10.38-9.31,0-7.65,7.81-7.6c.86,0,1.72.1,2.59.15Z"/>
  <path class="cls-4" d="M297.98,359.94c0,3.92,0,7.83,0,11.75-1.97.04-4.03.44-5.9.02-1.85-.41-5.29,2.25-5.33-2.49-.06-6.58,1.32-9.12,5.68-9.37,1.84-.11,3.7.05,5.55.09Z"/>
  <path class="cls-11" d="M229.95,11.43c0,3.66,0,7.33,0,10.99-.86.05-1.73.13-2.59.14-9.09.08-9.04.08-8.2-9.17.15-1.62.7-2.16,2.25-2.1,2.85.11,5.7.1,8.55.14Z"/>
  <path class="cls-3" d="M66.78,202.83c0,3.72,0,7.44,0,11.16.02,3.73.03,7.46.05,11.19-.02,43.82,0,87.65-.12,131.47,0,3.24,1.62,3.22,3.94,3.21,26.9-.04,53.8-.02,80.71-.02.28,3.84,1.62,8.63-.45,11.21-1.84,2.29-6.8.65-10.37.66-26.93.06-53.86-.01-80.79.1-2.75.01-3.51-.59-3.51-3.44.1-54.09.09-108.19,0-162.28,0-2.77.61-3.8,3.45-3.45,2.34.28,4.72.14,7.09.19Z"/>
  <path class="cls-10" d="M11.28,275.34c0-14.96-.03-29.92,0-44.88.03-10.38,6.15-16.49,16.46-16.52,4.86-.02,9.73.08,14.59-.04,1.99-.05,2.77.33,2.8,2.59.11,8.62.21,8.61-8.36,8.63-9.72.02-14.12,4.42-14.12,14.13,0,24.18,0,48.37,0,72.55,0,8.91,4.68,13.61,13.54,13.64,9.18.03,9.1.03,8.93,9.12-.04,2.14-.65,2.76-2.75,2.7-5.11-.14-10.23.07-15.34-.07-9.61-.28-15.71-6.57-15.75-16.22-.05-15.21-.01-30.42-.01-45.62Z"/>
  <path class="cls-2" d="M156.7,179.54c1.16,1.83.78,3.87.61,5.81-.46,5.06-1.69,6.12-6.69,6.12-5.73,0-11.48.26-17.18-.09-3.66-.23-4.2,1.19-4.15,4.38.17,11.08.06,22.16.07,33.25,0,2.02-.09,4.02-1.6,5.58-1.49,1.54-3.34,2.24-5.43,1.65-2.02-.57-3.63-1.83-3.98-4.02-.3-1.83-.34-3.71-.34-5.57-.04-10.58-.14-21.17.02-31.75.04-2.81-.73-3.51-3.51-3.49-18.18.13-36.37.07-54.56.07-5.08,0-6.16-.96-6.7-6.11-.21-1.98-.34-3.97.5-5.87,34.32.02,68.65.03,102.97.05Z"/>
  <path class="cls-13" d="M156.7,179.54c-34.32-.02-68.65-.03-102.97-.05,3.18-9.72,13.6-13.17,21.9-7.25,3.1,2.21,10.65.06,12.15-3.47,2.95-6.95,9.6-11.02,16.92-10.37,7.53.67,13.57,5.85,14.79,13.52.46,2.89,1.68,3.72,4.12,3.99.98.11,1.98.34,2.89.7,2.62,1.02,4.28.55,6.13-1.96,3.26-4.44,8.07-6.12,13.56-4.92,5.39,1.18,9.16,4.25,10.51,9.82Z"/>
  <path class="cls-8" d="M45.07,275.32c0,11.97-.07,23.93.06,35.9.03,2.47-.66,3.07-3.08,3.05-8.17-.06-8.17.04-8.17-8,0-22.19.06-44.38-.07-66.56-.02-2.81.67-3.51,3.46-3.45,7.79.17,7.8.03,7.8,7.65,0,10.47,0,20.94,0,31.41Z"/>
  <path class="cls-8" d="M66.83,225.17c-.02-3.73-.03-7.46-.05-11.19,1.11,0,2.22-.01,3.33-.01,8.63,0,8.97.43,7.93,9.11-.19,1.6-.85,2.14-2.33,2.12-2.96-.04-5.92-.02-8.88-.02Z"/>
  <path class="cls-15" d="M203.52,177.33c-.47-.89-1.76-1.63-.5-2.82,11.05-9.52,23.73-14.21,38.41-12.9,6.26.56,12.14,2.4,17.76,5.2,1.6.8,1.92,1.52.92,3.06-1.48,2.29-2.24,5.52-4.28,6.84-2.07,1.34-4.57-1.45-6.97-2.16-13.36-3.97-25.62-1.97-36.38,6.99-2.27,1.89-3.31,1.59-4.94-.35-1.19-1.42-2.67-2.59-4.02-3.87Z"/>
  <path class="cls-8" d="M291.37,225.02c-.04-3.68-.09-7.36-.13-11.03.99-.06,1.98-.15,2.96-.16,9.15-.08,9.16-.02,8.32,9.05-.15,1.58-.65,2.19-2.23,2.16-2.97-.06-5.95-.02-8.93-.02Z"/>
  <path class="cls-1" d="M202.96,337.39c0-3.72.02-7.43.03-11.15,21.27,0,42.55.04,63.82-.09,2.78-.02,3.56.65,3.5,3.47-.16,7.82-.02,7.83-8.01,7.83-19.78-.02-39.56-.04-59.34-.06Z"/>
  <path class="cls-9" d="M207.72,309.7q0-5.62,6.86-5.62,4.51,0,4.5,6.85c0,4.52,0,4.55-6.85,4.51-5.34-.03-4.43.64-4.52-5.74Z"/>
  <path class="cls-9" d="M235.95,315.24q-5.77,0-5.77-6.3,0-5.03,6.72-5.03c4.66,0,4.7,0,4.64,7.09-.04,5.01.79,4.15-5.58,4.24Z"/>
  <path class="cls-9" d="M258.67,303.91q5.35,0,5.34,6.77,0,4.56-6.77,4.56-4.6,0-4.6-6.73,0-4.6,6.02-4.6Z"/>
</svg>