<?xml version="1.0" encoding="UTF-8"?>
<svg id="Capa_1" data-name="Capa 1" xmlns="http://www.w3.org/2000/svg" viewBox="0 0 510.93 510.92">
  <defs>
    <style>
      .cls-1 {
        fill: #020202;
      }

      .cls-1, .cls-2, .cls-3, .cls-4, .cls-5, .cls-6, .cls-7, .cls-8 {
        stroke-width: 0px;
      }

      .cls-2 {
        fill: #71d6fc;
      }

      .cls-3 {
        fill: #d6d6e2;
      }

      .cls-4 {
        fill: #fe5d5d;
      }

      .cls-5 {
        fill: #040606;
      }

      .cls-6 {
        fill: #020303;
      }

      .cls-7 {
        fill: #f75a5a;
      }

      .cls-8 {
        fill: #030303;
      }
    </style>
  </defs>
  <path class="cls-8" d="M453.07,510.92c-11.76-4.02-19.41-13.32-27.78-21.68-39.97-39.96-79.95-79.91-119.83-119.96-2.72-2.73-4.51-3.53-8.26-1.31-33.29,19.74-69.48,28.77-108.05,26.98-45.8-2.12-86.27-18.37-120.96-48.49-28.53-24.77-48.38-55.34-59.43-91.43-11.21-36.63-11.73-73.55-1.21-110.47,11.88-41.71,35-75.92,69.1-102.7C103.3,20.93,133.52,7.92,166.87,2.55c38.18-6.16,75.11-1.1,110.48,14.53,34.08,15.07,61.74,38.12,82.92,68.72,17.84,25.77,28.89,54.33,33.06,85.45,5.47,40.86-1.34,79.64-19.94,116.39-1.05,2.07-2.12,4.13-3.27,6.14q-4.5,7.86,2.03,14.4c40.55,40.55,81.07,81.14,121.7,121.63,7.15,7.12,14.31,14.1,17.1,24.24v11.97c-2.96,5.03-4.64,10.79-9.14,14.95-4.51,4.16-8.82,8.56-13.04,13.02-7.04,7.43-14.23,14.56-24.71,16.93h-10.97ZM375.23,198.1c.7-97.2-79.26-177.52-177.24-178.03C100.82,19.56,20.69,98.77,20.23,196.95c-.46,97.31,77.37,177.7,176.86,178.13,97.54.42,177.19-77.75,178.15-176.98ZM490.91,459.37c-.16-3.98-2.53-6.7-5.17-9.33-18.93-18.9-37.84-37.82-56.76-56.74-11.87-11.87-23.83-23.64-35.53-35.67-2.68-2.75-4.06-2.55-6.61.08-9.59,9.91-19.37,19.64-29.24,29.26-2.39,2.33-2.86,3.76-.15,6.24,5.02,4.59,9.69,9.57,14.51,14.39,26.2,26.2,52.38,52.42,78.6,78.6,5.9,5.89,11.08,6.34,16.51,1.15,6.96-6.66,13.69-13.56,20.45-20.43,2.03-2.06,3.26-4.59,3.38-7.56ZM318.18,354.05c6.9,6.83,13.66,13.42,20.28,20.14,1.65,1.67,2.62,1.19,4.01-.21,10.51-10.6,21.05-21.17,31.65-31.66,1.59-1.57,1.43-2.55-.07-4.02-6.17-6.03-12.27-12.12-18.32-18.26-1.35-1.37-2.15-1.41-3.39.16-9.85,12.56-21.22,23.62-34.16,33.85Z"/>
  <path class="cls-2" d="M375.23,198.1c-.96,99.23-80.6,177.4-178.15,176.98-99.49-.43-177.32-80.81-176.86-178.13.46-98.18,80.6-177.39,177.76-176.88,97.98.51,177.94,80.83,177.24,178.03ZM133.11,312.52c-1.63,8.72.03,11.5,8.14,14.96,14.94,6.37,30.42,10.44,46.67,11.2,54.17,2.55,97.37-18.33,127.72-63,33.91-49.92,31.22-114.54-4.93-163.18-44.18-59.44-129.33-74.18-191.08-33.08-59.55,39.64-80.33,115.58-49.33,180.29,3.45,7.21,7.72,8.91,15.31,6.1,2.57,6.42,7.53,11.2,11.37,16.75-2.84,3.99-4.4,8.07-1.43,12.76,3.69,5.82,8.92,6.72,16.24,2.67,7.11,4.84,14.21,9.69,21.32,14.53Z"/>
  <path class="cls-4" d="M490.91,459.37c-.13,2.97-1.36,5.5-3.38,7.56-6.76,6.87-13.49,13.77-20.45,20.43-5.43,5.19-10.61,4.74-16.51-1.15-26.22-26.18-52.4-52.4-78.6-78.6-4.82-4.82-9.49-9.8-14.51-14.39-2.71-2.47-2.24-3.91.15-6.24,9.87-9.63,19.65-19.36,29.24-29.26,2.55-2.63,3.93-2.84,6.61-.08,11.7,12.03,23.66,23.8,35.53,35.67,18.92,18.92,37.82,37.84,56.76,56.74,2.64,2.63,5.01,5.35,5.17,9.33Z"/>
  <path class="cls-3" d="M318.18,354.05c12.94-10.23,24.32-21.29,34.16-33.85,1.23-1.57,2.04-1.53,3.39-.16,6.05,6.14,12.15,12.23,18.32,18.26,1.5,1.46,1.66,2.45.07,4.02-10.61,10.5-21.14,21.07-31.65,31.66-1.39,1.41-2.36,1.89-4.01.21-6.62-6.72-13.37-13.31-20.28-20.14Z"/>
  <path class="cls-6" d="M133.11,312.52c5.4-6.04,7.99-6.51,16.2-3.2,41.44,16.68,81.46,13.54,117.86-12.23,40.35-28.57,57.59-68.89,50.32-117.9-7.72-52.02-44.94-90.66-96.28-100.8-67.83-13.39-130.95,31.35-143.24,97.18-4.78,25.59-1.42,50.19,9.6,73.77,3.87,8.28,3.48,11.25-1.96,16.47-7.6,2.81-11.86,1.11-15.31-6.1-31-64.71-10.22-140.65,49.33-180.29,61.74-41.11,146.9-26.36,191.08,33.08,36.14,48.63,38.83,113.26,4.93,163.18-30.35,44.68-73.55,65.55-127.72,63-16.24-.76-31.73-4.83-46.67-11.2-8.11-3.46-9.77-6.24-8.14-14.96Z"/>
  <path class="cls-5" d="M96.98,282.56c6.18-3.26,10.65-2.95,14.42.99,3.71,3.88,3.83,8.21.39,14.45-7.32,4.04-12.55,3.14-16.24-2.68-2.97-4.68-1.4-8.77,1.43-12.76Z"/>
  <path class="cls-1" d="M163.36,161.99c3.46.33,6.11,1.85,8.4,4.19,4.43,4.5,9.07,8.81,13.33,13.47,2.18,2.39,3.33,2.02,5.42-.1,15.07-15.26,30.28-30.38,45.44-45.54,7.63-7.62,11.98-7.59,19.72.14,7.88,7.87,15.78,15.72,23.62,23.64,6.19,6.26,6.2,11.32-.04,17.57-27.48,27.53-54.99,55.04-82.51,82.53-6.51,6.5-11.42,6.51-17.94.02-16.37-16.31-32.72-32.64-49.02-49.02-6.12-6.15-6.09-11.39.04-17.57,8.31-8.38,16.7-16.68,25.02-25.06,2.43-2.44,5.2-4.06,8.52-4.27ZM259.32,167.03c.12-1.47-.93-1.93-1.58-2.6-2.9-2.98-6.08-5.71-8.73-8.89-2.45-2.94-3.93-2.64-6.53,0-15.14,15.41-30.47,30.64-45.78,45.89-6.37,6.35-11.49,6.29-17.94-.09-4.37-4.32-8.78-8.62-13.01-13.08-1.8-1.9-3.01-1.88-4.78.03-3.04,3.3-6.2,6.5-9.52,9.51-2.01,1.83-1.68,2.99.09,4.74,11.35,11.21,22.65,22.48,33.86,33.84,1.81,1.83,2.84,1.94,4.72.04,22.39-22.51,44.86-44.93,67.31-67.38.69-.69,1.34-1.44,1.88-2.02Z"/>
  <path class="cls-7" d="M259.32,167.03c-.54.59-1.19,1.33-1.88,2.02-22.45,22.45-44.92,44.87-67.31,67.38-1.88,1.89-2.91,1.79-4.72-.04-11.21-11.35-22.5-22.63-33.86-33.84-1.78-1.76-2.11-2.91-.09-4.74,3.32-3.02,6.48-6.21,9.52-9.51,1.76-1.91,2.97-1.93,4.78-.03,4.23,4.46,8.64,8.76,13.01,13.08,6.45,6.38,11.57,6.44,17.94.09,15.31-15.25,30.64-30.48,45.78-45.89,2.6-2.64,4.08-2.94,6.53,0,2.65,3.18,5.83,5.91,8.73,8.89.65.67,1.7,1.14,1.58,2.6Z"/>
</svg>