<?xml version="1.0" encoding="UTF-8"?>
<svg id="Capa_1" data-name="Capa 1" xmlns="http://www.w3.org/2000/svg" viewBox="0 0 217.39 196.74">
  <defs>
    <style>
      .cls-1 {
        fill: #090604;
      }

      .cls-1, .cls-2, .cls-3, .cls-4, .cls-5, .cls-6, .cls-7, .cls-8, .cls-9, .cls-10, .cls-11, .cls-12, .cls-13, .cls-14, .cls-15 {
        stroke-width: 0px;
      }

      .cls-2 {
        fill: #e3f5fd;
      }

      .cls-3 {
        fill: #407093;
      }

      .cls-4 {
        fill: #aee0f4;
      }

      .cls-5 {
        fill: #cc6069;
      }

      .cls-6 {
        fill: #345b78;
      }

      .cls-7 {
        fill: #fdfdfd;
      }

      .cls-8 {
        fill: #e0f2f9;
      }

      .cls-9 {
        fill: #e9b663;
      }

      .cls-10 {
        fill: #d1edf9;
      }

      .cls-11 {
        fill: #fcde7c;
      }

      .cls-12 {
        fill: #030101;
      }

      .cls-13 {
        fill: #a5b3ba;
      }

      .cls-14 {
        fill: #de7e84;
      }

      .cls-15 {
        fill: #090909;
      }
    </style>
  </defs>
  <path class="cls-15" d="M208.59,46.88c2.88-1.3,4.79-.49,5.63,2.61,5.28,19.45,4.1,38.46-4.67,56.67-4.83,10.03-11.75,18.18-23.4,20.73-2.26.49-1.57,2.22-1.57,3.56-.03,17.18-.02,34.36-.02,51.54,0,9.77-4.86,14.64-14.68,14.64-51.91.01-103.82-.07-155.72.1C7.25,196.76,3.16,193.42,0,187.97v-5.98c1.2-1.66,1.48-3.85,3.08-5.29.64-.58.64-1.1.07-1.86-1.14-1.53-2.11-3.2-3.15-4.8C0,122.23,0,74.42,0,26.61c1.04-1.61,2.01-3.28,3.16-4.8.58-.77.56-1.29-.08-1.86C1.48,18.52,1.19,16.33,0,14.66v-5.98c1.11.09.95-.96,1.22-1.5C3.52,2.48,7.28.06,12.46.05,32.3,0,52.14.05,71.98,0c3.47,0,4.74,1.59,4.1,4.9-1.51,1.36-3.33,1.4-5.23,1.4-19.16-.03-38.31,0-57.47-.04-3.18,0-5.69.85-6.69,4.12-1.22,3.99,1.65,7.27,6.44,7.29,12.07.05,24.13.04,36.2.01,17.16-.03,34.32-.1,51.49-.15,1.98.02,4,.31,5.92-.01,3.07-.51,4.82-2.57,4.7-5.74-.12-3.14-1.89-5.09-5.05-5.41-1.83-.18-3.7.04-5.56.08-3.93-.06-7.85-.19-11.78-.14-2.05.02-3.58-.54-4.38-2.54.11-2.86,1.72-3.82,4.42-3.78,5.47.08,10.95-.01,16.42.04,4.89.05,8.68,2.17,10.88,6.55,2.19,4.36,1.76,8.69-1.18,12.62-.83,1.11-1.41,1.86-.24,3.13,2.54,2.76,2.82,6.22,2.82,9.77-.01,28.48.04,56.97-.08,85.45-.01,2.99.55,4,3.78,3.96,14.17-.19,28.34-.08,42.46-.08.33-.56.38-.98-.07-1.4-11.41-10.77-15.87-24.72-17.34-39.71-1.41-14.4.26-28.53,6.63-41.79,3.78-7.86,8.77-14.74,16.61-19.05,9.25-5.09,19.76-3.95,28.15,2.96,3.58,2.95,6.43,6.5,9.05,10.33,2.06,3.01,1.63,4.96-1.58,6.46-2.29-.33-3.05-2.29-4.18-3.89-4.37-6.19-9.25-11.68-17.48-12.46-5.45-1.07-10.04.93-14.21,4.13-5.17,3.96-8.67,9.23-11.23,15.12-6.76,15.5-7.62,31.53-3.91,47.87,2.15,9.49,5.96,18.23,13.2,25.04,4.71,4.42,10.13,7.19,16.9,5.69,4.6-.35,8.13-2.83,11.34-5.82,4.34-4.05,7.39-9.01,9.62-14.46,6.39-15.59,7-31.58,3.14-47.86-.45-1.91-1.3-3.81,0-5.71ZM171.12,127.79h-1.61c-1.36-.06-2.73-.16-4.09-.16-27.11,0-54.21.08-81.32-.1-3.64-.02-4.58,1.12-3.94,4.35-.24.65-.45,1.29.31,1.76,1.3.63,2.69.29,4.03.29,22.75.03,45.5.03,68.24,0,5.59,0,11.17-.13,16.76-.2,2.08.08,4.19,0,6.25.27,3.41.44,2.54-1.92,2.73-3.75.24-2.44-.77-3.13-3-2.46-1.46,0-2.91,0-4.37,0ZM169.55,179.12c-10.43-.05-20.86-.16-31.29-.11-2.52.01-4.4-.53-5.17-3.15.68-2.84,2.66-3.43,5.31-3.43,10.38.03,20.77-.07,31.15-.12,1.97.06,3.96-.03,5.92.2,2.58.3,3.09-.87,3.05-3.18-.12-6.92-.04-13.85-.04-20.77q0-8.82-8.98-8.09c-28.97-.05-57.93-.08-86.9-.21-2.36-.01-2.57,1.04-2.56,2.93.07,8.58.18,17.16-.05,25.74-.09,3.14,1.07,3.62,3.83,3.59,12.06-.13,24.12-.03,36.18-.08,2.57,0,4.77.3,5.34,3.35-.69,2.58-2.42,3.23-4.98,3.21-12.42-.11-24.85-.07-37.27-.01-1.14,0-2.71-.82-3.07,1.51-.93,6.21,2.01,9.84,8.3,9.85,12.55.02,25.1.03,37.65,0,14.03-.03,28.07-.11,42.1-.17,1.48.05,2.97.25,4.43.11,4.19-.38,6.25-3.56,5.96-9.03-.25-4.65-3.74-1.49-5.6-2.24-.94-.38-2.19.03-3.29.08ZM100.84,24.36c-29.49-.04-58.98-.1-88.47-.08-3.8,0-5.78,2.22-5.82,6.23-.07,7.47.11,14.94-.09,22.4-.08,2.88.89,3.53,3.61,3.51,19.41-.11,38.83-.04,58.24-.06,11.32-.02,22.64-.11,33.96-.17,2.23.07,4.46.1,6.69.21,1.68.09,2.49-.5,2.48-2.32-.06-8.2.07-16.4-.1-24.6-.07-3.14-2.11-4.95-5.28-5.17-1.73-.12-3.47.03-5.21.05ZM102.27,62.84c-.37-.05-.74-.14-1.11-.14-30.62-.01-61.24.03-91.87-.09-2.81-.01-2.92,1.21-2.92,3.35.05,21.54.09,43.07-.04,64.61-.02,2.88.84,3.49,3.57,3.47,18.67-.13,37.34-.07,56.02-.07q7.69,0,7.79-7.74c.06-4.33.65-4.92,5.03-4.96,7.84-.07,15.67-.12,23.51-.17,1.73.07,3.49,0,5.19.24,3.21.46,4.21-.6,4.17-4-.2-15.41-.09-30.83-.09-46.24q0-9.03-9.27-8.25ZM40.33,140.3c-10.19,0-20.39.05-30.58-.04-2.36-.02-3.32.66-3.27,3.17.14,7.46,0,14.92.06,22.38.03,4.6,2.01,6.59,6.59,6.6,19.14.03,38.29-.04,57.43.08,2.76.02,3.29-1.01,3.26-3.47-.12-8.45-.18-16.91.03-25.36.07-3-1.07-3.45-3.69-3.41-9.94.13-19.89.05-29.84.06ZM42.57,190.37c9.58,0,19.16-.04,28.74.03,2.46.02,4.48.22,2.86-3.37-.67-1.49-.53-3.44-.41-5.16.16-2.23-.46-2.98-2.86-2.96-19.16.11-38.32.05-57.48.07-4.32,0-6.88,2.09-6.98,5.54-.11,3.63,2.48,5.84,7.01,5.85,9.7.03,19.41,0,29.11,0Z"/>
  <path class="cls-10" d="M100.82,17.54c-17.16.05-34.32.12-51.49.15-12.07.02-24.13.04-36.2-.01-4.79-.02-7.66-3.31-6.44-7.29,1-3.27,3.51-4.13,6.69-4.12,19.16.05,38.31.01,57.47.04,1.9,0,3.73-.04,5.23-1.4,2.72-1.48,5.93.79,8.59-1.13.8,2,2.33,2.56,4.38,2.54,3.93-.04,7.85.08,11.78.14,1.87,3.7,2.03,7.39-.01,11.08Z"/>
  <path class="cls-10" d="M208.59,46.88c-1.3,1.91-.45,3.8,0,5.71,3.86,16.27,3.24,32.26-3.14,47.86-2.23,5.45-5.28,10.42-9.62,14.46-3.21,2.99-6.74,5.47-11.34,5.82,0-1.01.05-1.95.97-2.67,6.71-5.25,10.25-12.61,13.04-20.31,4.75-13.1,5.11-26.7,2.98-40.25-1.92-12.18-6.47-23.36-16.05-31.84-.83-.73-1.7-1.5-1.68-2.77,8.23.78,13.11,6.27,17.48,12.46,1.13,1.6,1.88,3.56,4.18,3.89,1.06,2.55,2.13,5.1,3.19,7.65Z"/>
  <path class="cls-11" d="M102.27,121.09c-7.84.06-15.67.1-23.51.17-4.39.04-4.98.64-5.03,4.96q-.1,7.74-7.79,7.74c-18.67,0-37.34-.05-56.02.07-2.74.02-3.59-.59-3.57-3.47.13-21.54.09-43.07.04-64.61,0-2.13.11-3.36,2.92-3.35,30.62.12,61.24.08,91.87.09.37,0,.74.09,1.11.14.02,6.59.03,13.17.05,19.76-9.33.03-18.65.03-27.98.11-3.4.03-5.19,2.07-4.06,4.49.89,1.92,2.67,1.96,4.46,1.96,9.2.02,18.4.07,27.6.11-.01,1.94-.03,3.87-.04,5.81-1.86.03-3.72.09-5.58.09-7.69.01-15.39,0-23.08.01-2,0-3.46.81-3.55,2.95-.1,2.33,1.36,3.3,3.55,3.32.87.01,1.74,0,2.61,0,8.68.03,17.37.06,26.05.1.01,1.94.03,3.87.04,5.81-9.32.04-18.65.05-27.97.14-3.29.03-4.96,1.73-4.21,4.12.72,2.26,2.61,2.33,4.55,2.33,9.2.01,18.4.05,27.6.08-.02,2.34-.03,4.69-.05,7.03ZM42.77,119.82c1.53,1.88,3.29,2.26,5.61,1.35,10.26-4.04,16.86-15.97,14.82-27.02-2.19-11.92-12.19-20.43-24.08-20.5-11.96-.07-22.11,8.31-24.35,20.13-2.17,11.43,4.18,23.18,14.68,27.36,2.29.91,4.1.75,5.49-1.41,2.61.03,5.22.06,7.83.09Z"/>
  <path class="cls-3" d="M102.27,56.19c-11.32.06-22.64.15-33.96.17-19.41.03-38.83-.04-58.24.06-2.72.02-3.69-.63-3.61-3.51.2-7.46.02-14.93.09-22.4.04-4.01,2.02-6.23,5.82-6.23,29.49-.02,58.98.05,88.47.08.22,1.97,1.58,3.56,1.55,5.69-.15,8.71-.1,17.42-.13,26.13Z"/>
  <path class="cls-3" d="M40.33,140.3c9.95,0,19.89.08,29.84-.06,2.61-.04,3.76.41,3.69,3.41-.21,8.45-.15,16.91-.03,25.36.04,2.47-.5,3.49-3.26,3.47-19.14-.11-38.29-.04-57.43-.08-4.59,0-6.56-2-6.59-6.6-.05-7.46.07-14.92-.06-22.38-.05-2.52.91-3.19,3.27-3.17,10.19.09,20.39.04,30.58.04Z"/>
  <path class="cls-14" d="M125.34,175.8c-.57-3.05-2.78-3.36-5.34-3.35-12.06.05-24.12-.05-36.18.08-2.75.03-3.91-.45-3.83-3.59.24-8.57.12-17.16.05-25.74-.01-1.89.19-2.94,2.56-2.93,28.97.13,57.93.16,86.9.21.02,10.61.04,21.22.06,31.83-10.38.05-20.77.15-31.15.12-2.65,0-4.63.58-5.31,3.43-2.58-.02-5.17-.04-7.75-.06ZM129.6,147.01c-11.32,0-22.63.02-33.95-.02-2.44,0-4.86.3-4.83,3.28.03,2.97,2.47,3.23,4.89,3.23,22.38-.02,44.77-.02,67.15,0,2.44,0,4.86-.34,4.83-3.29-.02-2.96-2.48-3.22-4.9-3.22-11.07.03-22.14.02-33.2.02ZM120.99,159.48c-8.45,0-16.9.02-25.36,0-2.39,0-4.79.14-4.72,3.29.06,2.91,2.36,3.03,4.6,3.03,17.03-.01,34.06-.01,51.08,0,2.26,0,4.53-.2,4.54-3.09,0-3.14-2.42-3.23-4.79-3.23-8.45.02-16.9,0-25.36,0Z"/>
  <path class="cls-8" d="M183.75,22.89c-.01,1.27.85,2.03,1.68,2.77,9.58,8.48,14.13,19.66,16.05,31.84,2.14,13.55,1.77,27.15-2.98,40.25-2.8,7.71-6.33,15.07-13.04,20.31-.92.72-.97,1.66-.97,2.67-6.77,1.5-12.2-1.26-16.9-5.69-7.24-6.81-11.04-15.55-13.2-25.04-3.71-16.34-2.85-32.37,3.91-47.87,2.57-5.88,6.07-11.16,11.23-15.12,4.17-3.19,8.76-5.2,14.21-4.13ZM199.11,72.07c-.19-10.19-1.73-20.09-7.11-28.98-6.88-11.37-14.38-11.65-20.63.04-10.13,18.94-10.11,38.54-.01,57.48,6.21,11.66,13.79,11.39,20.63.06,5.3-8.77,6.89-18.54,7.12-28.61Z"/>
  <path class="cls-2" d="M125.34,175.8c2.58.02,5.17.04,7.75.06.77,2.62,2.64,3.16,5.17,3.15,10.43-.05,20.86.06,31.29.11.51,3.83-.95,7.39-1.49,11.07-14.03.06-28.07.14-42.1.17-12.55.03-25.1.02-37.65,0-6.29,0-9.23-3.64-8.3-9.85.35-2.33,1.93-1.51,3.07-1.51,12.42-.06,24.85-.09,37.27.01,2.56.02,4.29-.63,4.98-3.21Z"/>
  <path class="cls-10" d="M42.57,190.37c-9.7,0-19.41.02-29.11,0-4.53-.01-7.12-2.22-7.01-5.85.11-3.45,2.67-5.53,6.98-5.54,19.16-.02,38.32.04,57.48-.07,2.4-.01,3.01.73,2.86,2.96-.12,1.72-.26,3.67.41,5.16,1.62,3.6-.4,3.39-2.86,3.37-9.58-.06-19.16-.03-28.74-.03Z"/>
  <path class="cls-9" d="M102.35,107.38c-.01-1.94-.03-3.87-.04-5.81,3.8-2.32,3.8-4.17,0-6.48.01-1.94.03-3.87.04-5.81,3.78-2.52,3.77-4.19-.03-6.67-.02-6.59-.03-13.17-.05-19.76q9.27-.78,9.27,8.25c0,15.41-.11,30.83.09,46.24.04,3.39-.96,4.46-4.17,4-1.71-.24-3.46-.17-5.19-.24.02-2.34.03-4.69.05-7.03,3.8-2.49,3.8-4.15.03-6.67Z"/>
  <path class="cls-5" d="M169.55,172.31c-.02-10.61-.04-21.22-.06-31.83q8.98-.74,8.98,8.09c0,6.92-.08,13.85.04,20.77.04,2.31-.47,3.48-3.05,3.18-1.95-.23-3.94-.15-5.92-.2Z"/>
  <path class="cls-6" d="M102.27,56.19c.02-8.71-.03-17.42.13-26.13.04-2.14-1.33-3.72-1.55-5.69,1.74-.03,3.48-.17,5.21-.05,3.16.22,5.21,2.02,5.28,5.17.17,8.2.04,16.4.1,24.6.01,1.83-.79,2.41-2.48,2.32-2.23-.11-4.46-.15-6.69-.21Z"/>
  <path class="cls-7" d="M169.5,133.74c-5.59.07-11.17.19-16.76.2-22.75.02-45.5.02-68.24,0-1.34,0-2.73.34-4.03-.29.2-.64.26-1.26-.31-1.76-.64-3.23.3-4.37,3.94-4.35,27.11.18,54.21.1,81.32.1,1.36,0,2.73.1,4.09.15.01.38.02.77.03,1.15-27.84,0-55.68,0-83.51.02-1.12,0-2.24,0-3.35.1-.91.08-1.2.77-1.22,1.58-.02.91.06,1.83,1.22,1.95,1.11.11,2.23.1,3.35.1,27.84.01,55.68.02,83.51.02-.01.34-.02.68-.04,1.03Z"/>
  <path class="cls-10" d="M168.06,190.19c.54-3.69,2-7.25,1.49-11.07,1.11-.05,2.36-.46,3.29-.08,1.86.75,5.36-2.41,5.6,2.24.29,5.47-1.77,8.65-5.96,9.03-1.46.13-2.95-.07-4.43-.11Z"/>
  <path class="cls-4" d="M100.82,17.54c2.04-3.69,1.89-7.38.01-11.08,1.85-.04,3.73-.26,5.56-.08,3.16.32,4.94,2.27,5.05,5.41.12,3.17-1.63,5.23-4.7,5.74-1.92.32-3.95.03-5.92.01Z"/>
  <path class="cls-10" d="M169.5,133.74c.01-.34.02-.68.04-1.03,0-1.26,0-2.52,0-3.78-.01-.38-.02-.77-.03-1.15.54,0,1.07,0,1.61.01,1.45,1.81,2.91,1.79,4.37,0,2.23-.67,3.24.02,3,2.46-.18,1.84.68,4.19-2.73,3.75-2.06-.26-4.16-.19-6.25-.27Z"/>
  <path class="cls-7" d="M175.48,127.79c-1.46,1.79-2.91,1.81-4.37,0,1.46,0,2.91,0,4.37,0Z"/>
  <path class="cls-13" d="M80.16,131.88c.57.5.51,1.12.31,1.76-.76-.47-.55-1.11-.31-1.76Z"/>
  <path class="cls-1" d="M34.94,119.72c-1.4,2.16-3.2,2.32-5.49,1.41-10.5-4.18-16.85-15.93-14.68-27.36,2.24-11.82,12.39-20.2,24.35-20.13,11.89.07,21.89,8.59,24.08,20.5,2.03,11.05-4.57,22.97-14.82,27.02-2.32.92-4.08.53-5.61-1.35-.25-2.98,1.82-3.94,4.06-5.03,7.95-3.88,11.84-12.36,9.79-20.94-1.95-8.14-9.26-13.72-17.79-13.59-8.5-.02-15.53,5.44-17.61,13.67-2.06,8.19,1.81,16.75,9.4,20.68,1.63.84,3.51,1.3,4.41,3.16-.03.65-.06,1.3-.1,1.95Z"/>
  <path class="cls-5" d="M34.94,119.72c.03-.65.06-1.3.1-1.95,3.5-.92,6.19-3,8.24-5.91,7.7-10.91,6.08-22.29-4.45-31.6,8.53-.14,15.84,5.45,17.79,13.59,2.06,8.58-1.83,17.06-9.79,20.94-2.25,1.1-4.31,2.05-4.06,5.03-2.61-.03-5.22-.06-7.83-.09Z"/>
  <path class="cls-15" d="M102.35,107.38c3.77,2.52,3.77,4.19-.03,6.67-9.2-.03-18.4-.07-27.6-.08-1.94,0-3.83-.07-4.55-2.33-.76-2.39.91-4.09,4.21-4.12,9.32-.09,18.65-.1,27.97-.14Z"/>
  <path class="cls-15" d="M102.32,82.6c3.8,2.48,3.8,4.15.03,6.67-9.2-.04-18.4-.09-27.6-.11-1.79,0-3.58-.04-4.46-1.96-1.12-2.42.66-4.46,4.06-4.49,9.33-.08,18.65-.08,27.98-.11Z"/>
  <path class="cls-12" d="M102.31,95.09c3.8,2.31,3.8,4.17,0,6.48-8.68-.03-17.37-.06-26.05-.1-.87,0-1.74,0-2.61,0-2.2-.03-3.65-.99-3.55-3.32.09-2.14,1.55-2.95,3.55-2.95,7.69,0,15.39,0,23.08-.01,1.86,0,3.72-.06,5.58-.09Z"/>
  <path class="cls-15" d="M129.6,147.01c11.07,0,22.14.02,33.2-.02,2.42,0,4.88.25,4.9,3.22.02,2.95-2.39,3.29-4.83,3.29-22.38-.03-44.77-.02-67.15,0-2.42,0-4.86-.26-4.89-3.23-.03-2.98,2.39-3.28,4.83-3.28,11.32.04,22.63.02,33.95.02Z"/>
  <path class="cls-12" d="M120.99,159.48c8.45,0,16.9.01,25.36,0,2.37,0,4.8.09,4.79,3.23,0,2.89-2.28,3.1-4.54,3.09-17.03-.01-34.06-.01-51.08,0-2.24,0-4.54-.12-4.6-3.03-.07-3.15,2.33-3.3,4.72-3.29,8.45.02,16.9,0,25.36,0Z"/>
  <path class="cls-15" d="M199.1,72.07c-.22,10.07-1.81,19.83-7.11,28.61-6.84,11.32-14.42,11.59-20.63-.06-10.1-18.95-10.12-38.54.01-57.48,6.25-11.69,13.75-11.4,20.63-.04,5.38,8.89,6.92,18.78,7.11,28.98ZM170.89,76.7c.52,7.78,2.07,15.23,6.72,21.73,3.53,5.44,4.55,5.5,8.14.17,4.14-6.13,5.94-13.1,6.59-20.34,1.06-11.87-.12-23.38-6.97-33.6-3.12-4.66-4.15-4.56-7.42-.11-.14.19-.18.45-.27.68-4.68,6.48-6.26,13.93-6.78,21.7-.76,3.26-.76,6.52-.01,9.77Z"/>
  <path class="cls-2" d="M169.54,128.93c0,1.26,0,2.52,0,3.78-27.84,0-55.68-.01-83.51-.02-1.12,0-2.24.01-3.35-.1-1.15-.12-1.24-1.04-1.22-1.95.02-.82.31-1.51,1.22-1.58,1.11-.09,2.23-.1,3.35-.1,27.84-.01,55.68-.01,83.51-.02Z"/>
  <path class="cls-14" d="M38.83,80.26c10.53,9.32,12.15,20.69,4.45,31.6-2.05,2.9-4.74,4.99-8.24,5.91-.9-1.86-2.78-2.32-4.41-3.16-7.59-3.93-11.46-12.49-9.4-20.68,2.07-8.23,9.11-13.69,17.61-13.67Z"/>
  <path class="cls-10" d="M170.9,66.93c.52-7.78,2.09-15.23,6.78-21.7,1.66,1.6,2.37,3.73,3.12,5.8,3.68,10.19,4.79,20.66,2.81,31.31-1.05,5.66-2.2,11.41-6,16.1-4.65-6.5-6.2-13.95-6.72-21.73,1.11-3.26,1.09-6.51.01-9.77Z"/>
  <path class="cls-4" d="M177.61,98.43c3.8-4.69,4.95-10.44,6-16.1,1.97-10.65.86-21.12-2.81-31.31-.75-2.08-1.46-4.2-3.12-5.8.09-.23.13-.49.27-.68,3.27-4.45,4.29-4.54,7.42.11,6.86,10.22,8.03,21.73,6.97,33.6-.65,7.24-2.45,14.21-6.59,20.34-3.6,5.33-4.61,5.27-8.14-.17Z"/>
  <path class="cls-13" d="M170.9,66.93c1.08,3.26,1.1,6.52-.01,9.77-.75-3.26-.75-6.52.01-9.77Z"/>
</svg>