<?xml version="1.0" encoding="UTF-8"?>
<svg id="Capa_1" data-name="Capa 1" xmlns="http://www.w3.org/2000/svg" viewBox="0 0 383.1 383.12">
  <defs>
    <style>
      .cls-1 {
        fill: #040301;
      }

      .cls-1, .cls-2, .cls-3, .cls-4, .cls-5, .cls-6, .cls-7, .cls-8, .cls-9, .cls-10, .cls-11, .cls-12, .cls-13, .cls-14 {
        stroke-width: 0px;
      }

      .cls-2 {
        fill: #eaeaea;
      }

      .cls-3 {
        fill: #afe2f7;
      }

      .cls-4 {
        fill: #e29441;
      }

      .cls-5 {
        fill: #fccd63;
      }

      .cls-6 {
        fill: #e08324;
      }

      .cls-7 {
        fill: #d6d6d6;
      }

      .cls-8 {
        fill: #fbbf4f;
      }

      .cls-9 {
        fill: #d2edf9;
      }

      .cls-10 {
        fill: #aedff4;
      }

      .cls-11 {
        fill: #e19341;
      }

      .cls-12 {
        fill: #d5586c;
      }

      .cls-13 {
        fill: #030303;
      }

      .cls-14 {
        fill: #d8d8d8;
      }
    </style>
  </defs>
  <path class="cls-13" d="M42.69,255.07c-1.7-2.28-2.46-4.78-.65-7.23,7.64-10.31,16.8-18.8,29.45-22.43,11.99-3.44,22.85-.32,32.85,6.62.82.57,1.62,1.16,2.43,1.73.09.06.22.07.86.27,0-1.41,0-2.69,0-3.98-.06-29.16.19-58.33,1.54-87.46,1.18-25.58,12.36-45.97,32.86-61.28.67-.5,1.33-1.03,2.11-1.64-6.59-6.06-9.35-13.34-6.99-21.98,1.73-6.34,5.83-10.97,11.97-13.45,1.99-.81,2.54-1.83,2.49-3.86-.14-5.36-.11-10.72-.03-16.07C151.82,9.75,161.65.05,176.18.03c15.33-.03,30.66-.04,45.99,0,14.1.04,23.93,9.67,24.28,23.82.14,5.6.08,11.22,0,16.82-.03,1.69.39,2.62,2.05,3.4,14.78,6.95,17.65,22.91,6.31,34.62-.26.27-.46.59-.79,1.02,2.14,1.67,4.22,3.38,6.4,4.96,3.24,2.35,3.91,5.26,2.15,8.8-3.9,2.87-5.52,2.83-9.26-.03-2.46-1.89-4.99-3.69-7.53-5.48-4.06-2.88-8.44-4.1-13.58-3.99-15.3.31-30.6.09-45.9.12-3.72,0-7.44.17-11.16.26-10.04-1.26-19.2-.13-27.62,6.63-13.81,11.07-22.69,24.87-26.08,42.18-.24,1.24-2.11,3.85,1.69,3.83,12.82-.07,25.65,0,38.47,0,5.58.27,11.17.56,16.75.8,11.97.51,19.6,7.83,20.77,19.66,1.2,12.05,1.19,24.07,0,36.11-1.17,11.83-8.9,19.25-20.74,19.68-6.09.22-12.17.56-18.25.85-12.94-.02-25.88,0-38.82-.11-2.02-.02-2.47.63-2.45,2.53.09,9.21.1,18.42,0,27.63-.02,1.78.69,3.05,1.66,4.38,7.98,10.96,13.69,23.01,17.32,36.06.6,2.17,1.22,4.35,1.81,6.46.99-.15,1.02-.68,1.13-1.14,3.71-15.94,10.65-30.39,20.16-43.65,4.3-4.83,8.57-9.67,13.82-13.54,14.07-10.38,29.59-11.47,44-2.95,8.75,5.17,15.4,12.53,21.23,20.72.6.84.84,2.08,2.21,2.28,8.82-17.56,17.64-35.09,26.43-52.64,1.92-3.83,4.19-7.42,7.69-9.94,2.04-1.47,2.73-3.05,2.63-5.55-.51-13.32-.9-26.65-1.19-39.97-.26-11.95-3.3-23.1-9.35-33.38-1.81-3.08-1.87-5.79.27-8.59,4.91-2.05,6.96-1.42,9.54,3.06,6.51,11.3,10.21,23.45,10.66,36.51.45,12.96.83,25.91,1.13,38.87.05,2.2.34,3.1,3.01,3.13,10.28.14,18.17,4.8,23.15,13.84,3.35,6.09,6.34,12.39,9.38,18.65,2.06,4.24.76,7.39-3.66,8.71-6.34,1.89-10.44,5.85-11.29,12.45-.79,6.12,1.68,11.09,7.07,14.13,5.79,3.26,11.41,2.49,16.71-1.58,3.63-2.79,7.11-1.97,9.22,2.19,12.44,24.62,24.82,49.28,37.19,73.94.91,1.82,1.55,3.77,2.32,5.66v9.73c-2.47,4.79-4.63,9.71-9.14,13.18-16.12,12.4-34.02,20.92-53.96,25.03-5.38,1.11-10.81,1.97-16.22,2.95h-23.94c-.24-1.04-1.13-.75-1.8-.84-7.39-.96-14.77-2.12-21.82-4.51-3.89-1.32-7.2-1.65-10.61,1.07-1.75,1.4-4.15,1.61-6.36,1.87-3.58.42-7.19.51-10.75,1.04-3.58.53-7.32-.12-10.77,1.37h-76.32c-3.67-1.98-7.94-2.47-11.54-4.63-.33-.2-.98-.14-1.36.05-6.01,2.96-12.63,2.33-18.98,3.29-3.09.47-6.35-.26-9.28,1.29h-3.74c-1-1.16-2-.79-2.99,0h-23.94c-1-.61-2-1.08-2.99,0h-5.99c-2.8-1.55-5.94-.94-8.91-1.36-4.18-.6-8.45-.67-12.6-1.41-7.84-1.4-13.17-6.72-14.47-14.58-2.26-13.61-5.23-27.11-6.81-40.83-.27-2.36-.97-3.24-3.59-3.28-8.01-.13-14.15-6.53-14.21-14.32-.06-7.97,6.16-14.37,14.31-14.71,2.6-.11,5.94.76,7.59-.53,1.62-1.28,1.46-4.75,2.17-7.23,1.48-5.13,3.22-10.17,5.34-15.08,2.07-4.79,3.49-5.54,8.68-4.55,2.92,2.36,3.41,5.1,1.85,8.58-2.66,5.95-4.88,12.09-6.04,18.67h21.48c23.52.04,47.05.05,70.57.18,2.93.02,2.13-1.53,1.74-3.04-2.78-10.65-7.04-20.66-13.01-29.92-5.38-8.35-11.67-15.86-20.5-20.76-8.01-4.44-16.25-5.09-24.57-.72-7.35,3.31-12.67,8.99-17.64,15.08-3.09,3.78-4.87,4.13-9.26,1.78ZM178.83,72.62c3.73.07,7.47.21,11.2.21,16.83.02,33.67.07,50.5-.04,5.83-.04,9.95-4.16,9.96-9.47,0-5.04-3.97-9.42-9.19-9.43-20.82-.07-41.64.04-62.46.09-7.32-.05-14.64-.22-21.95-.1-5.22.08-9.18,4.21-9.31,9.25-.13,4.99,3.74,9.42,8.94,9.56,7.43.2,14.87-.03,22.31-.07ZM37.43,303.97c-7.35-.04-14.7-.09-22.05-.13-2.29-.01-4.07.91-4.07,3.36,0,2.44,1.75,3.36,4.07,3.34,7.35-.05,14.7-.09,22.05-.13,1.37.04,2.74.12,4.11.12,73.57,0,147.14.01,220.7-.02,2.69,0,6.52.99,6.37-3.49-.14-4.08-3.78-3.16-6.37-3.16-73.57-.03-147.14-.02-220.7-.02-1.37,0-2.74.09-4.11.13ZM186.33,11.39c-3.84-.05-7.69-.21-11.53-.11-6.52.16-11.58,4.94-11.87,11.46-.26,5.82-.04,11.66-.13,17.5-.03,1.72.48,2.43,2.32,2.38,5.83-.14,11.66-.14,17.49-.19,16.83.05,33.65.08,50.48.18,1.6,0,2.21-.5,2.19-2.13-.1-6.11.13-12.23-.21-18.32-.34-6.01-5.28-10.76-11.33-10.83-12.46-.14-24.93.03-37.39.07ZM160.14,202.5c6.46-.19,12.92-.22,19.37-.62,4.77-.3,7.78-3.62,8.33-8.5,1.35-11.91,1.35-23.82,0-35.72-.56-4.92-3.45-8.15-8.34-8.48-6.19-.43-12.4-.39-18.61-.55-12.94-.85-25.9-.35-38.85-.45-1.83-.01-1.98.96-2.01,2.32-.35,16.7-.7,33.39-1.09,50.09-.03,1.45.15,2.26,1.95,2.26,13.08-.04,26.16.3,39.24-.33ZM187.02,238.61c-2.14.45-3.81,1.81-5.44,3.1-16.44,13.02-24.65,30.87-29.98,50.77h94.47c-1.45-9.99-7.68-24.54-15.24-35.51-4.92-7.15-10.65-13.53-18.33-17.82-8.36-4.67-16.88-5.54-25.48-.53ZM250.64,326.26q1.15-4.49-3.3-4.49c-71.5,0-143,0-214.51.01-1.34,0-2.74-.32-4.11.4,1.58,13.84,4.78,27.42,6.8,41.2.51,3.47,2.66,5.69,6.14,6.08,5.56.63,11.15.97,16.72,1.44,20.68,1.95,41.29.79,61.87-1.4,3.6-.38,5.84-2.52,6.33-6.28.43-3.33.99-6.64,1.41-9.97.96-7.56,3.78-10.75,11.14-12.49,8.98,1.16,11.53,3.71,12.92,12.96.46,3.07.89,6.15,1.36,9.23.6,3.94,2.64,6.16,6.5,6.57,5.31.57,10.65.91,15.98,1.34,20.91,2.02,41.75.84,62.56-1.38,3.48-.37,5.54-2.62,6.15-6.08.45-2.57.84-5.15,1.23-7.73,1.49-9.82,3.97-19.47,4.81-29.4ZM293.12,351.07c26.48-.18,50.38-8.11,71.72-23.84,2.02-1.49,2.59-2.48,1.3-5.01-9.59-18.7-19-37.49-28.33-56.32-1.21-2.45-2.2-2.97-4.95-2.03-11.15,3.84-23.47-.71-29.69-10.58-6.2-9.84-4.91-22.44,2.85-31.17,2.05-2.31,6.55-3.07,6.25-6.4-.28-3.11-2.75-6.03-4.26-9.03-.45-.89-.88-1.79-1.34-2.67-2.94-5.54-7.55-8.63-13.83-8.59-6.28.05-10.86,3.19-13.69,8.8-9.83,19.56-19.62,39.14-29.52,58.66-.91,1.79-.75,3.13.04,4.82,2.72,5.88,4.91,11.96,6.59,18.22q1.77,6.58,8.47,6.67c8.69.13,15.06,6.02,15.26,14.12.21,8.42-5.79,14.65-14.69,14.97-2.11.08-2.6.74-2.86,2.71-.83,6.29-1.71,12.6-3.03,18.79-.6,2.79.45,3.36,2.67,3.91,10.2,2.52,20.51,4.07,31.05,3.96ZM371.8,336.48c-.58.12-.72.11-.81.17-34.01,24.14-71.25,31.32-111.77,21.25-.71-.18-1.89-.57-2.06.04-.62,2.25-1.12,4.58-1.27,6.91-.12,1.93,1.85,1.72,3.04,2.06,14.62,4.25,29.48,5.79,44.71,4.38,23.59-2.19,44.68-10.54,63.38-25.01,3.12-2.41,4.83-5.59,4.79-9.8ZM139.6,352.4c-.74,4.81-1.48,9.62-2.22,14.43-.15.99-1.25,2.15.36,2.86,1.69.74,3.38,1.64,5.3,1.41.8-.1.78-.88.56-1.48-2.03-5.52-1.73-11.47-4-17.22Z"/>
  <path class="cls-12" d="M66.59,383.12c1-1.08,2-.61,2.99,0h-2.99Z"/>
  <path class="cls-12" d="M93.53,383.12c1-.79,2-1.16,2.99,0h-2.99Z"/>
  <path class="cls-9" d="M160.14,214.09c6.08-.29,12.17-.63,18.25-.85,11.84-.43,19.57-7.85,20.74-19.68,1.19-12.05,1.19-24.07,0-36.11-1.17-11.83-8.8-19.15-20.77-19.66-5.59-.24-11.17-.53-16.75-.8.02-3.72.18-7.4.67-11.11,1.21-9.23,3.22-18.22,6.31-27.02,1.78-5.05,4.65-9.55,6.56-14.51,3.72-.09,7.44-.25,11.16-.26,15.3-.03,30.61.19,45.9-.12,5.14-.11,9.51,1.11,13.58,3.99,2.53,1.79,5.06,3.6,7.53,5.48,3.74,2.86,5.36,2.9,9.26.03.41,2.54,2.95,3.46,4.11,5.4.73,1.22,1.98,2.2,2.01,3.81-2.14,2.8-2.08,5.51-.27,8.59,6.05,10.28,9.09,21.43,9.35,33.38.29,13.33.68,26.65,1.19,39.97.1,2.5-.59,4.08-2.63,5.55-3.5,2.52-5.78,6.1-7.69,9.94-8.78,17.55-17.61,35.08-26.43,52.64-1.37-.21-1.61-1.44-2.21-2.28-5.83-8.18-12.48-15.54-21.23-20.72-14.42-8.52-29.94-7.42-44,2.95-5.25,3.87-9.52,8.72-13.82,13.54-1.29-1.06-.79-2.53-.8-3.83-.04-9.44-.02-18.88-.01-28.33Z"/>
  <path class="cls-14" d="M55.37,292.47h-21.48c1.16-6.58,3.38-12.72,6.04-18.67,1.56-3.48,1.07-6.21-1.85-8.58.26-2.7,2.31-4.51,3.41-6.8.53-1.1,1.3-2.05,1.19-3.36,4.39,2.34,6.18,2,9.26-1.78,4.97-6.09,10.29-11.77,17.64-15.08.02,2.12-1.36,3.69-2.17,5.48-6.98,15.53-10.2,31.99-12.06,48.78Z"/>
  <path class="cls-5" d="M293.12,351.07c-10.54.12-20.85-1.43-31.05-3.96-2.22-.55-3.26-1.12-2.67-3.91,1.33-6.2,2.2-12.5,3.03-18.79.26-1.97.75-2.64,2.86-2.71,8.9-.32,14.9-6.54,14.69-14.97-.2-8.1-6.57-14-15.26-14.12q-6.69-.1-8.47-6.67c-1.68-6.26-3.87-12.34-6.59-18.22-.78-1.69-.95-3.03-.04-4.82,9.9-19.52,19.69-39.1,29.52-58.66,2.82-5.61,7.4-8.75,13.69-8.8,6.28-.05,10.88,3.04,13.83,8.59.47.88.9,1.78,1.34,2.67,1.51,3,3.98,5.92,4.26,9.03.3,3.33-4.2,4.1-6.25,6.4-7.76,8.72-9.04,21.33-2.85,31.17,6.22,9.88,18.54,14.42,29.69,10.58,2.75-.95,3.73-.42,4.95,2.03,9.34,18.83,18.75,37.62,28.33,56.32,1.29,2.53.72,3.52-1.3,5.01-21.34,15.73-45.24,23.66-71.72,23.84ZM343.7,309.96c-.06-13.75-11.24-24.84-25.01-24.82-13.7.02-24.79,11.19-24.82,25-.03,13.9,11.28,25.14,25.18,25.03,13.65-.11,24.7-11.42,24.64-25.21ZM277.81,254.48c-10.01.07-18.23,8.45-18.11,18.47.11,9.83,8.42,18.07,18.19,18.04,10.04-.03,18.31-8.29,18.31-18.3,0-9.96-8.39-18.27-18.39-18.2Z"/>
  <path class="cls-4" d="M139.13,340.76c-7.36,1.74-10.19,4.93-11.14,12.49-.42,3.33-.98,6.64-1.41,9.97-.49,3.76-2.73,5.9-6.33,6.28-20.58,2.19-41.19,3.35-61.87,1.4-2.5-13.73-5.01-27.45-7.48-41.18-.44-2.45.41-3.55,3.18-3.52,13.32.13,26.64.06,39.96.06,14.19,0,28.38,0,42.57-.01,1.87,0,3.89-.01,3.17,2.64-1.07,3.95-.33,7.93-.65,11.87Z"/>
  <path class="cls-4" d="M250.64,326.26c-.84,9.92-3.32,19.58-4.81,29.4-.39,2.58-.78,5.16-1.23,7.73-.61,3.46-2.67,5.71-6.15,6.08-20.81,2.23-41.65,3.41-62.56,1.38-.64-4.4-1.21-8.81-1.95-13.2-1.57-9.38-3.1-18.78-4.92-28.11-.62-3.16.59-3.34,3.15-3.34,26.16.08,52.31.05,78.47.05Z"/>
  <path class="cls-2" d="M187.02,238.61c8.6-5,17.13-4.14,25.48.53,7.68,4.29,13.4,10.68,18.33,17.82,7.56,10.97,13.8,25.52,15.24,35.51h-72.47c0-1.36-.16-2.75.03-4.09,2.13-14.8,5.17-29.38,10.97-43.26.89-2.14,2.64-3.97,2.42-6.52Z"/>
  <path class="cls-2" d="M55.37,292.47c1.86-16.79,5.08-33.25,12.06-48.78.81-1.79,2.19-3.36,2.17-5.48,8.32-4.37,16.56-3.72,24.57.72,8.83,4.9,15.12,12.41,20.5,20.76,5.97,9.26,10.22,19.28,13.01,29.92.39,1.51,1.19,3.06-1.74,3.04-23.52-.13-47.05-.14-70.57-.18Z"/>
  <path class="cls-6" d="M250.64,326.26c-26.16,0-52.31.02-78.47-.05-2.56,0-3.77.17-3.15,3.34,1.83,9.34,3.35,18.73,4.92,28.11.73,4.38,1.3,8.8,1.95,13.2-5.33-.44-10.67-.77-15.98-1.34-3.86-.42-5.9-2.64-6.5-6.57-.47-3.07-.89-6.15-1.36-9.23-1.39-9.25-3.94-11.8-12.92-12.96.32-3.95-.41-7.93.65-11.87.72-2.65-1.3-2.64-3.17-2.64-14.19.02-28.38.01-42.57.01-13.32,0-26.64.07-39.96-.06-2.78-.03-3.63,1.07-3.18,3.52,2.47,13.73,4.98,27.46,7.48,41.18-5.58-.46-11.17-.81-16.72-1.44-3.48-.39-5.64-2.61-6.14-6.08-2.02-13.78-5.21-27.36-6.8-41.2,1.38-.72,2.77-.4,4.11-.4,71.5-.02,143-.02,214.51-.01q4.45,0,3.3,4.49Z"/>
  <path class="cls-14" d="M160.14,202.5c-13.07.63-26.16.29-39.24.33-1.8,0-1.98-.81-1.95-2.26.39-16.7.74-33.39,1.09-50.09.03-1.36.17-2.33,2.01-2.32,12.95.11,25.9-.4,38.85.45-.13,17.96.29,35.93-.75,53.88Z"/>
  <path class="cls-3" d="M160.14,214.09c0,9.44-.02,18.88.01,28.33,0,1.3-.49,2.77.8,3.83-9.52,13.26-16.45,27.71-20.16,43.65-.11.47-.14.99-1.13,1.14-.59-2.11-1.2-4.28-1.81-6.46-3.63-13.05-9.34-25.1-17.32-36.06-.96-1.32-1.68-2.6-1.66-4.38.09-9.21.09-18.42,0-27.63-.02-1.9.43-2.55,2.45-2.53,12.94.11,25.88.09,38.82.11Z"/>
  <path class="cls-10" d="M175.14,84.35c-1.9,4.96-4.78,9.46-6.56,14.51-3.1,8.8-5.1,17.79-6.31,27.02-.49,3.72-.65,7.4-.67,11.11-12.82-.01-25.65-.07-38.47,0-3.8.02-1.93-2.59-1.69-3.83,3.39-17.31,12.27-31.11,26.08-42.18,8.42-6.75,17.59-7.89,27.62-6.63Z"/>
  <path class="cls-2" d="M186.33,11.39c12.46-.04,24.93-.21,37.39-.07,6.05.07,11,4.82,11.33,10.83.34,6.09.11,12.21.21,18.32.03,1.62-.59,2.14-2.19,2.13-16.83-.09-33.65-.13-50.48-.18,0-3.33-.08-6.66-.01-9.99.09-4.54-.34-9.08.75-13.6.64-2.67,2.79-4.65,3-7.44Z"/>
  <path class="cls-11" d="M37.43,303.97c1.37-.05,2.74-.13,4.11-.13,73.57,0,147.14-.01,220.7.02,2.59,0,6.23-.91,6.37,3.16.15,4.48-3.68,3.49-6.37,3.49-73.57.03-147.14.03-220.7.02-1.37,0-2.74-.08-4.11-.12,0-2.14,0-4.29,0-6.43Z"/>
  <path class="cls-2" d="M160.14,202.5c1.04-17.95.62-35.92.75-53.88,6.2.16,12.42.13,18.61.55,4.89.34,7.78,3.57,8.34,8.48,1.35,11.91,1.35,23.82,0,35.72-.55,4.89-3.56,8.2-8.33,8.5-6.44.41-12.91.43-19.37.62Z"/>
  <path class="cls-2" d="M178.84,53.98c20.82-.05,41.64-.16,62.46-.09,5.22.02,9.2,4.39,9.19,9.43,0,5.31-4.13,9.43-9.96,9.47-16.83.11-33.67.06-50.5.04-3.73,0-7.47-.14-11.2-.21-3.21-6.22-2.94-12.43.01-18.64Z"/>
  <path class="cls-12" d="M371.8,336.48c.03,4.21-1.68,7.38-4.79,9.8-18.7,14.47-39.78,22.82-63.38,25.01-15.22,1.41-30.08-.13-44.71-4.38-1.19-.35-3.17-.14-3.04-2.06.15-2.33.65-4.66,1.27-6.91.17-.61,1.35-.22,2.06-.04,40.52,10.07,77.76,2.9,111.77-21.25.09-.06.24-.05.81-.17Z"/>
  <path class="cls-14" d="M187.02,238.61c.22,2.55-1.53,4.38-2.42,6.52-5.8,13.88-8.84,28.45-10.97,43.26-.19,1.34-.03,2.72-.03,4.09h-22.01c5.33-19.9,13.54-37.75,29.98-50.77,1.63-1.29,3.3-2.64,5.44-3.1Z"/>
  <path class="cls-7" d="M186.33,11.39c-.21,2.79-2.36,4.76-3,7.44-1.09,4.52-.66,9.07-.75,13.6-.07,3.33,0,6.66.01,9.99-5.83.05-11.66.05-17.49.19-1.84.05-2.34-.66-2.32-2.38.09-5.83-.12-11.67.13-17.5.29-6.51,5.35-11.29,11.87-11.46,3.84-.1,7.69.07,11.53.11Z"/>
  <path class="cls-14" d="M178.84,53.98c-2.95,6.21-3.22,12.43-.01,18.64-7.44.05-14.88.28-22.31.07-5.2-.14-9.07-4.58-8.94-9.56.13-5.04,4.09-9.17,9.31-9.25,7.31-.12,14.63.05,21.95.1Z"/>
  <path class="cls-6" d="M37.43,303.97c0,2.14,0,4.29,0,6.43-7.35.04-14.7.08-22.05.13-2.31.02-4.07-.9-4.07-3.34,0-2.44,1.78-3.37,4.07-3.36,7.35.04,14.7.09,22.05.13Z"/>
  <path class="cls-10" d="M139.6,352.4c2.28,5.75,1.98,11.71,4,17.22.22.6.25,1.38-.56,1.48-1.92.24-3.62-.66-5.3-1.41-1.61-.71-.51-1.87-.36-2.86.74-4.81,1.48-9.62,2.22-14.43Z"/>
  <path class="cls-1" d="M343.7,309.96c.06,13.79-11,25.1-24.64,25.21-13.91.11-25.22-11.13-25.18-25.03.03-13.82,11.12-24.99,24.82-25,13.77-.02,24.95,11.08,25.01,24.82ZM305.1,310.11c-.02,7.63,6.05,13.78,13.65,13.82,7.54.04,13.69-6.13,13.72-13.76.02-7.63-6.08-13.81-13.65-13.81-7.62,0-13.69,6.09-13.72,13.75Z"/>
  <path class="cls-1" d="M277.81,254.48c10-.07,18.4,8.24,18.39,18.2,0,10.01-8.27,18.27-18.31,18.3-9.76.03-18.07-8.21-18.19-18.04-.12-10.02,8.1-18.4,18.11-18.47ZM284.95,272.64c-.06-3.8-3.52-7.08-7.29-6.91-3.67.16-6.78,3.43-6.73,7.08.05,3.77,3.54,7.09,7.28,6.92,3.67-.17,6.8-3.46,6.74-7.1Z"/>
  <path class="cls-8" d="M305.1,310.11c.02-7.66,6.1-13.75,13.72-13.75,7.57,0,13.67,6.18,13.65,13.81-.02,7.63-6.18,13.8-13.72,13.76-7.6-.04-13.67-6.19-13.65-13.82Z"/>
  <path class="cls-8" d="M284.95,272.64c.05,3.63-3.07,6.93-6.74,7.1-3.74.17-7.23-3.15-7.28-6.92-.04-3.65,3.06-6.92,6.73-7.08,3.77-.17,7.23,3.11,7.29,6.91Z"/>
</svg>