<?xml version="1.0" encoding="UTF-8"?>
<svg id="Capa_1" data-name="Capa 1" xmlns="http://www.w3.org/2000/svg" viewBox="0 0 383.34 369.61">
  <defs>
    <style>
      .cls-1 {
        fill: #77bfa2;
      }

      .cls-1, .cls-2, .cls-3, .cls-4, .cls-5, .cls-6, .cls-7, .cls-8, .cls-9, .cls-10, .cls-11, .cls-12, .cls-13, .cls-14 {
        stroke-width: 0px;
      }

      .cls-2 {
        fill: #c1845d;
      }

      .cls-3 {
        fill: #93d4a2;
      }

      .cls-4 {
        fill: #fcd571;
      }

      .cls-5 {
        fill: #f9b23f;
      }

      .cls-6 {
        fill: #9fc889;
      }

      .cls-7 {
        fill: #d44852;
      }

      .cls-8 {
        fill: #cc9773;
      }

      .cls-9 {
        fill: #d9616c;
      }

      .cls-10 {
        fill: #caf29d;
      }

      .cls-11 {
        fill: #030302;
      }

      .cls-12 {
        fill: #b1e29b;
      }

      .cls-13 {
        fill: #030202;
      }

      .cls-14 {
        fill: #fdd571;
      }
    </style>
  </defs>
  <path class="cls-11" d="M383.34,105.49v71.08c-1.43.85-.67,2.23-.73,3.35-.94,17.68-1.74,35.36-2.73,53.03-1.55,27.61-4.92,55.12-4.03,82.87.37,11.65-6.9,18.65-18.47,18.66-18.2.02-36.41,0-54.61,0-35.16,0-70.32.03-105.49-.06-2.55,0-3.42.49-3.32,3.21.23,5.85.12,11.72.06,17.58-.09,8.39-6,14.36-14.42,14.37-54.99.04-109.97.04-164.96,0-8.41,0-14.31-5.99-14.4-14.4-.07-6.86.08-13.72-.06-20.57-.06-2.83.56-5.36,1.81-7.88,5.43-10.97,8.65-22.59,8.76-34.82.25-30.3.21-60.59.25-90.89.01-7.81-.94-15.67-4.47-22.55C.62,166.92-.58,154.86.22,142.29c.05-.75,0-1.5,0-2.24.01-10.95,5.28-16.19,16.33-16.19,28.55,0,57.11-.05,85.66.07,2.96.01,3.63-.81,3.68-3.67.34-17.95.34-36.06,3.96-53.63,3.29-15.96,3.19-31.89,3.26-47.92,0-.37,0-.75,0-1.12C113.28,7.25,120.5.02,130.89.02c75.69-.03,151.37-.02,227.06,0,10.64,0,17.89,7.19,17.96,17.76.06,9.6,0,19.2.03,28.8,0,1.24.02,2.51.31,3.7,3.39,13.98,4.75,28.22,5.82,42.52.32,4.23-.33,8.59,1.28,12.69ZM263.74,149.37c-.8-.33-1.57-.71-2.39-.97-21.93-6.91-41.96-17.46-60.15-31.49-4.53-3.49-8.8-7.32-13.17-11.03-4.28-3.63-4.71-3.58-7.12,1.34-1.97,4.03-3.46,8.23-4.78,12.52-.96,3.11-.56,4.25,3.18,4.22,9.21-.07,14.69,5.78,14.72,15.06.02,5.98-.04,11.96.02,17.94.03,3.38.15,6.76-1.69,9.78-.84,1.38-.34,2.23.71,3.18,4.45,4,9.03,7.8,14.47,10.42,7.62,4.24,15.92,6.11,24.48,7.19,21.78,2.75,43.01-8.96,52.06-28.64,1.31-2.86,1.3-4.52-2.2-5.27-6.07-1.31-12.1-2.82-18.15-4.24ZM166.26,155.85c4.82.09,9.65.15,14.47.29,1.61.05,2.16-.57,2.14-2.17-.07-5.21-.03-10.42-.03-15.63,0-2.13-1.14-3.32-3.18-3.31-4.45,0-8.91-.4-13.35.23-3.86-.06-7.74.08-11.58-.23-3.39-.27-4.95.44-4.69,4.33.25,3.67-2.1,5.8-5.33,5.86-3.6.07-5.81-2.23-5.7-6.73.07-2.89-.87-3.52-3.59-3.47-9.47.16-18.95.19-28.42,0-3.2-.07-4.65.48-4.36,4.14.29,3.59-2.03,5.89-5.17,6.06-3.7.2-6.03-2.29-5.89-6.87.08-2.59-.6-3.37-3.26-3.32-9.47.17-18.95.21-28.42-.01-3.35-.08-5.07.41-4.66,4.31.28,2.67-1.16,4.87-3.91,5.69-2.17.64-4.19.17-5.8-1.58-1.5-1.63-1.54-3.65-1.4-5.64.15-2.16-.7-2.77-2.8-2.75-8.6.1-17.21.1-25.81.01-3.11-.03-4.18,1.38-4.09,4.35.13,4.23.32,8.5-.05,12.71-.31,3.53,1.06,3.98,4.17,3.98,49-.09,98-.07,147-.07,1.24,0,2.48-.12,3.72-.18ZM170.08,337.55c-18.51-.04-37.02-.08-55.52-.13-4.93-.01-6.36-1.16-7.45-5.91.86-3.94,3.37-5.37,7.31-5.36,17.56.05,35.11-.04,52.67-.08,3.11.04,6.24-.07,9.34.16,2.97.23,2.95-.84,2.04-3.17-4.06-10.42-6.23-21.28-6.27-32.46-.13-30.04-.08-60.08-.1-90.12,0-10.11,2.39-19.72,6.14-29.04,1.66-4.12,1.62-4.15-2.87-4.15-52.1,0-104.21,0-156.31,0-.75,0-1.5.04-2.24,0-1.85-.11-2.1.77-1.51,2.29,1.46,3.82,2.88,7.65,4.31,11.48,1.01,5.63,2.51,11.18,2.51,16.96.02,29.68.09,59.36.09,89.03,0,12.05-1.78,23.82-6.06,35.15-1.5,3.95-1.48,3.97,2.64,3.97,22.2,0,44.4.05,66.59-.04,3.97-.02,6.43,1.46,7.3,5.38-1.14,4.75-2.56,5.89-7.52,5.89-23.44,0-46.88.06-70.32-.07-2.82-.02-3.61.69-3.45,3.48.25,4.35.18,8.73.03,13.09-.1,3.17,1.09,4.53,4.36,4.49,8.48-.12,16.96-.13,25.43.02,2.32.04,3.16-.61,2.91-2.92-.16-1.47-.18-3.05.61-4.39,1.31-2.23,3.31-3.47,5.94-2.91,3.11.66,4.87,2.9,4.57,5.94-.38,3.85,1.19,4.4,4.59,4.31,9.22-.24,18.45-.22,27.67,0,3.15.07,4.6-.53,4.07-3.98-.37-2.4.7-4.42,2.85-5.65,1.88-1.08,3.84-1.01,5.67.15,2.27,1.44,2.94,3.68,2.62,6.17-.32,2.6.56,3.35,3.22,3.3,8.97-.18,17.95-.06,26.93-.08,1.86,0,4.05.46,5.48-.36,1.45-.83.38-3.2.69-4.87.59-3.13,2.45-4.88,5.58-5.05,2.91-.15,5.19,2.22,5.51,5.45.13,1.36.21,2.72.31,4.08-.17.91.44.68.93.64,6.23,0,12.47-.02,18.7-.03,1.24.05,2.48.13,3.71.13,9.82.06,9.14.7,8.99-9.03-.06-3.92,1.78-9.44-.77-11.32-2.65-1.95-7.84-.46-11.93-.47ZM307.18,124.92c-5.46,6.77-11.12,13.38-17.12,19.7,6.87,5.55,8.05,10.18,4.52,18.13-2.74,6.19-6.36,11.88-11.03,16.77-17.86,18.71-39.78,22.79-64.1,17.09-4.18-.98-7.47-.26-10.97,1.62-2.4,1.29-2.88,2.82-1.32,5.07,11.47,16.62,26.73,26.41,47.44,26.46,1.36.06,2.73.25,4.08.15,31.71-2.5,54.02-18.48,65.98-47.79,8.58-21.04,4.53-40.81-9.4-58.61-2.73-3.48-3.57-3.48-6.71-.33-.52.52-.92,1.15-1.37,1.73ZM353.4,290.37c-1.37-.05-2.73-.14-4.1-.14-43.14,0-86.27,0-129.41,0-11.22,0-22.44.03-33.66-.03-1.9-.01-2.92.16-2.78,2.55.57,9.91,2.67,19.45,6.37,28.66.52,1.31,1.19,1.9,2.71,1.89,10.35-.07,20.7-.08,31.04,0,2.02.02,2.58-.68,2.49-2.59-.14-2.74-.07-5.48-.02-8.23.08-4.18,2.11-6.5,5.56-6.49,3.42.01,5.52,2.38,5.64,6.52.08,2.74.12,5.49-.02,8.23-.1,1.9.44,2.58,2.46,2.57,10.72-.1,21.44-.08,32.16,0,1.77.01,2.41-.47,2.33-2.3-.13-3.11-.14-6.24,0-9.35.17-3.47,2.53-5.7,5.69-5.66,3.15.05,5.36,2.32,5.47,5.85.09,2.99.15,5.99-.02,8.97-.11,2.03.64,2.5,2.55,2.48,10.6-.08,21.19-.13,31.79.03,2.49.04,2.91-.9,2.79-3.03-.15-2.61-.09-5.24-.02-7.85.12-4.18,2.18-6.49,5.64-6.44,3.43.04,5.46,2.37,5.58,6.57.08,2.87.09,5.74,0,8.6-.06,1.63.54,2.16,2.15,2.12,5.36-.12,10.71-.12,16.07-.16,1.74.05,3.48.14,5.22.13,5.67-.01,7.58-1.92,7.6-7.61.02-4.98.11-9.97-.03-14.94-.1-3.43,1.62-8.25-.73-9.92-2.4-1.7-6.92-.39-10.52-.4ZM351.17,11.37c-3.99-.04-7.98.03-11.95-.17-2.22-.11-2.76.76-2.66,2.79.14,2.86.13,5.74-.02,8.6-.2,3.88-2.39,6.02-5.78,5.91-3.2-.1-5.21-2.21-5.39-5.93-.14-2.99-.12-5.98-.02-8.97.06-1.72-.44-2.41-2.3-2.39-9.1.08-18.2.1-27.29-.01-2.15-.03-2.43.89-2.38,2.66.1,2.99.15,5.99-.03,8.97-.21,3.56-2.48,5.7-5.67,5.68-3.24-.02-5.35-2.17-5.47-5.79-.1-2.99-.14-5.99,0-8.97.1-1.97-.57-2.58-2.54-2.54-6.35.11-12.71.02-19.07.05-3.34.02-7.69-1.11-9.76.55-2.18,1.76-.47,6.29-.72,9.6-.02.25,0,.5,0,.75-.13,4.07-2.26,6.42-5.75,6.35-3.32-.06-5.38-2.37-5.46-6.23-.06-2.87-.14-5.74.03-8.6.12-2.03-.63-2.51-2.55-2.48-6.35.11-12.71.01-19.07.05-3.34.02-7.69-1.09-9.76.58-2.2,1.77-.47,6.3-.73,9.61-.02.25,0,.5,0,.75-.12,3.95-2.03,6.2-5.36,6.31-3.46.11-5.73-2.26-5.85-6.27-.09-2.86-.09-5.74,0-8.6.06-1.66-.26-2.45-2.21-2.43-9.22.1-18.45.08-27.67.02-1.66-.01-2.16.61-2.12,2.18.08,2.99.1,5.98-.01,8.97-.14,3.95-2.18,6.13-5.54,6.13-3.36,0-5.47-2.17-5.65-6.08-.13-2.74-.15-5.49,0-8.22.12-2.16-.36-3.09-2.82-3.02-6.1.19-12.21.02-18.32.07-4.88.04-6.92,2.15-6.95,7.16-.04,7.23.18,14.47-.09,21.68-.13,3.42.84,4.26,4.24,4.25,33.65-.14,67.3-.09,100.95-.08,5.31,0,6.7,1.04,8.06,5.82-.83,4.18-3.49,5.47-7.58,5.46-34.29-.09-68.57,0-102.86-.14-3.4-.02-4.37,1.14-4.93,4.21-3.73,20.31-4.43,40.85-5.15,61.4-.09,2.53.98,2.83,3.08,2.82,13.71-.07,27.43-.09,41.14.02,2.29.02,2.97-.81,3.29-2.89.94-6.07,3.07-11.79,5.63-17.34,6.35-13.77,14.99-15.53,26.24-5.34,21.51,19.48,46.18,33.15,74.07,41.26,5.31,1.54,8.53.78,12.19-3.28,6.34-7.05,11.97-14.7,18.56-21.5,7.31-7.54,15.21-7.34,21.86.7,14.27,17.25,21.03,37.02,15.54,59.16-8.64,34.86-31.03,56.81-66.06,64.73-29.42,6.65-53.82-2.42-72.37-26.42-7.26-9.4-7.09-14.19.37-23.41-4.01-2.54-7.98-5.12-11.54-8.26-1.54-1.35-2.06-1-2.68.88-2.3,6.95-3.09,14.08-3.08,21.35.03,23.69.09,47.38-.08,71.07-.03,3.63.92,4.5,4.52,4.5,53.99-.12,107.97-.08,161.96-.09,1.24,0,2.49-.1,3.73-.15,3.11.05,6.23,0,9.33.2,2.24.15,2.68-.87,2.75-2.84.14-3.85.52-7.7.85-11.55,3.38-39.23,5.3-78.53,5.71-117.9.29-27.66-.23-55.3-4.39-82.73-1.3-8.55-1.27-8.56-9.79-8.53-1.24,0-2.48.11-3.72.17-1.49-.06-2.97-.16-4.46-.16-29.95,0-59.9,0-89.85-.01-4.97,0-6.09-.84-7.52-5.41,1.25-4.65,2.71-5.81,7.66-5.81,20.56-.02,41.13,0,61.69-.02,10.34-.01,20.68-.1,31.02-.16,3.23.05,6.46.04,9.68.19,1.71.08,2.41-.4,2.39-2.26-.09-8.33.03-16.66-.1-24.98-.05-3.52-2.23-5.48-5.65-5.74-2.59-.19-5.21.03-7.82.07Z"/>
  <path class="cls-8" d="M353.38,278.83c-1.24.05-2.49.15-3.73.15-53.99,0-107.97-.03-161.96.09-3.6,0-4.55-.87-4.52-4.5.17-23.69.11-47.38.08-71.07,0-7.27.78-14.4,3.08-21.35.62-1.88,1.14-2.23,2.68-.88,3.56,3.14,7.53,5.72,11.54,8.26-7.46,9.22-7.63,14.02-.37,23.41,18.54,24,42.94,33.07,72.37,26.42,35.03-7.92,57.42-29.87,66.06-64.73,5.49-22.14-1.27-41.91-15.54-59.16-6.65-8.04-14.55-8.24-21.86-.7-6.59,6.79-12.22,14.45-18.56,21.5-3.66,4.06-6.88,4.82-12.19,3.28-27.89-8.12-52.56-21.78-74.07-41.26-11.25-10.19-19.89-8.43-26.24,5.34-2.56,5.55-4.69,11.27-5.63,17.34-.32,2.07-1,2.91-3.29,2.89-13.71-.12-27.43-.09-41.14-.02-2.1.01-3.16-.29-3.08-2.82.72-20.55,1.42-41.1,5.15-61.4.57-3.08,1.54-4.23,4.93-4.21,34.29.15,68.57.05,102.86.14,4.09.01,6.75-1.28,7.58-5.46,4.92,0,9.84,0,14.76,0,1.43,4.57,2.56,5.41,7.52,5.41,29.95,0,59.9,0,89.85.01,1.49,0,2.97.1,4.46.16,1.26,8.06,2.95,16.09,3.67,24.2,1.13,12.59,2.11,25.24,2.21,37.87.13,15.55.37,31.09-.4,46.67-.73,14.75-.76,29.55-1.68,44.32-.42,6.82-.22,13.68-.92,20.46-.38,3.72-.39,7.43-.66,11.14-.96,12.85-1.98,25.69-2.97,38.53Z"/>
  <path class="cls-3" d="M167.08,326.07c-17.56.04-35.11.13-52.67.08-3.94-.01-6.45,1.42-7.31,5.36-4.81,0-9.62.01-14.43.02-.87-3.92-3.33-5.39-7.3-5.38-22.2.09-44.4.04-66.59.04-4.12,0-4.14-.01-2.64-3.97,4.28-11.33,6.06-23.1,6.06-35.15,0-29.68-.07-59.36-.09-89.03,0-5.78-1.51-11.33-2.51-16.96,46.14,0,92.28.01,138.42-.08,3.47,0,4.25.84,3.39,4.35-1,4.05-1.87,8.18-1.86,12.48.1,32.05.05,64.1.07,96.14,0,1.48.18,2.97.33,4.45.95,9.59,3.83,18.67,7.13,27.66ZM154.46,241.33c0-4.86.02-9.72,0-14.59-.03-4.81-1.37-6.48-6.18-7.19-4.43-.65-8.9-1.28-13.4-1.07-2.44.11-4.05-.71-5.7-2.59-20.5-23.33-58.37-20.13-74.04,6.72-3.55,6.08-6.4,8.71-13.43,6.5-4.44-1.39-7.08,1.36-7.11,6.1-.06,9.47.04,18.95-.05,28.42-.03,3.33,1.43,5.34,4.5,6.5,5.14,1.94,10.39,3.49,15.84,4.21,1.9.25,3.08,1.05,4.29,2.45,21.48,24.92,60.75,20.62,76.34-8.27,1.22-2.27,1.38-5.68,3.62-6.66,2.33-1.02,5.34.2,8.04.61,4.54.68,7.19-1.59,7.26-6.18.07-4.99.02-9.97.02-14.96Z"/>
  <path class="cls-14" d="M252.28,50.08c-4.92,0-9.84,0-14.76,0-1.36-4.78-2.75-5.82-8.06-5.82-33.65,0-67.3-.06-100.95.08-3.41.01-4.37-.83-4.24-4.25.28-7.22.06-14.45.09-21.68.03-5.01,2.07-7.12,6.95-7.16,6.11-.05,12.22.11,18.32-.07,2.46-.07,2.94.85,2.82,3.02-.16,2.73-.13,5.49,0,8.22.18,3.91,2.29,6.09,5.65,6.08,3.37,0,5.4-2.18,5.54-6.13.11-2.99.09-5.98.01-8.97-.04-1.57.47-2.19,2.12-2.18,9.22.06,18.45.08,27.67-.02,1.95-.02,2.27.78,2.21,2.43-.1,2.86-.09,5.73,0,8.6.12,4.01,2.39,6.38,5.85,6.27,3.32-.11,5.24-2.36,5.36-6.31,0-.25-.01-.5,0-.75.25-3.31-1.47-7.84.73-9.61,2.07-1.67,6.42-.56,9.76-.58,6.36-.04,12.71.06,19.07-.05,1.92-.03,2.67.45,2.55,2.48-.17,2.86-.09,5.73-.03,8.6.08,3.86,2.15,6.17,5.46,6.23,3.49.07,5.62-2.28,5.75-6.35,0-.25-.01-.5,0-.75.25-3.31-1.47-7.85.72-9.6,2.07-1.66,6.41-.53,9.76-.55,6.36-.03,12.71.06,19.07-.05,1.96-.03,2.63.57,2.54,2.54-.14,2.98-.11,5.98,0,8.97.12,3.61,2.23,5.76,5.47,5.79,3.2.02,5.47-2.12,5.67-5.68.17-2.98.12-5.98.03-8.97-.06-1.77.22-2.69,2.38-2.66,9.1.12,18.2.09,27.29.01,1.86-.02,2.35.67,2.3,2.39-.1,2.99-.12,5.99.02,8.97.17,3.73,2.18,5.83,5.39,5.93,3.39.1,5.57-2.03,5.78-5.91.15-2.86.16-5.74.02-8.6-.1-2.03.44-2.9,2.66-2.79,3.98.2,7.97.13,11.95.17,1.11,2.12,1.54,4.36,1.52,6.77-.07,8.65-.03,17.31-.04,25.96-10.34.05-20.68.14-31.02.16-20.56.02-41.13,0-61.69.02-4.95,0-6.42,1.16-7.66,5.81Z"/>
  <path class="cls-14" d="M351.87,323.11c-5.36.05-10.72.05-16.07.16-1.61.04-2.2-.49-2.15-2.12.1-2.86.09-5.74,0-8.6-.12-4.2-2.15-6.53-5.58-6.57-3.46-.04-5.52,2.27-5.64,6.44-.07,2.62-.13,5.24.02,7.85.12,2.13-.29,3.07-2.79,3.03-10.59-.15-21.19-.11-31.79-.03-1.91.01-2.66-.46-2.55-2.48.16-2.98.11-5.98.02-8.97-.11-3.52-2.32-5.8-5.47-5.85-3.16-.05-5.53,2.19-5.69,5.66-.15,3.11-.14,6.24,0,9.35.08,1.82-.56,2.31-2.33,2.3-10.72-.07-21.44-.09-32.16,0-2.03.02-2.56-.67-2.46-2.57.14-2.74.1-5.49.02-8.23-.12-4.14-2.22-6.51-5.64-6.52-3.46-.01-5.48,2.31-5.56,6.49-.05,2.74-.12,5.49.02,8.23.1,1.91-.47,2.61-2.49,2.59-10.35-.09-20.7-.07-31.04,0-1.52.01-2.18-.59-2.71-1.89-3.7-9.21-5.8-18.75-6.37-28.66-.14-2.39.88-2.56,2.78-2.55,11.22.06,22.44.03,33.66.03,43.14,0,86.27,0,129.41,0,1.37,0,2.73.09,4.1.14,0,7.8-.05,15.59.04,23.39.04,3.24-.04,6.41-1.57,9.36Z"/>
  <path class="cls-1" d="M167.08,326.07c-3.3-8.98-6.18-18.07-7.13-27.66-.15-1.48-.33-2.97-.33-4.45-.02-32.05.03-64.1-.07-96.14-.01-4.3.86-8.42,1.86-12.48.86-3.51.08-4.35-3.39-4.35-46.14.09-92.28.07-138.42.08-1.43-3.83-2.85-7.66-4.31-11.48-.58-1.52-.33-2.39,1.51-2.29.75.04,1.5,0,2.24,0,52.1,0,104.21,0,156.31,0,4.49,0,4.53.03,2.87,4.15-3.76,9.32-6.15,18.93-6.14,29.04.02,30.04-.03,60.08.1,90.12.05,11.18,2.21,22.03,6.27,32.46.91,2.33.93,3.4-2.04,3.17-3.1-.24-6.22-.12-9.34-.16Z"/>
  <path class="cls-4" d="M254.6,229.77c-20.7-.05-35.97-9.84-47.44-26.46-1.55-2.25-1.08-3.78,1.32-5.07,3.49-1.88,6.79-2.6,10.97-1.62,24.32,5.69,46.24,1.61,64.1-17.09,4.67-4.89,8.29-10.58,11.03-16.77,3.53-7.96,2.36-12.58-4.52-18.13,6-6.33,11.65-12.93,17.12-19.7.97.62,1.66,1.47,2.18,2.49,6.22,12.31,9.14,25.29,6.35,38.92-5.32,25.99-20.12,44.93-43.78,56.93-5.53,2.8-11.54,4.36-17.32,6.5ZM286.63,205.97c.09-2.92-2.33-5.49-5.32-5.64-3.28-.16-5.77,2.14-5.83,5.39-.06,3.08,2.19,5.55,5.19,5.73,3.02.18,5.85-2.42,5.95-5.48ZM303.49,181.04c3.06.09,5.72-2.46,5.76-5.55.04-2.94-2.31-5.47-5.25-5.65-3.1-.19-5.79,2.23-5.93,5.33-.15,3.09,2.33,5.77,5.42,5.86Z"/>
  <path class="cls-10" d="M92.68,331.53c4.81,0,9.62-.01,14.43-.02,1.09,4.74,2.52,5.9,7.45,5.91,18.51.05,37.02.09,55.52.13,0,6.89,0,13.78,0,20.68-6.23,0-12.47.02-18.7.03-.31-.21-.62-.43-.93-.64-.1-1.36-.17-2.72-.31-4.08-.32-3.23-2.6-5.6-5.51-5.45-3.12.16-4.99,1.91-5.58,5.05-.31,1.67.76,4.03-.69,4.87-1.43.82-3.62.36-5.48.36-8.98.02-17.96-.1-26.93.08-2.66.05-3.54-.7-3.22-3.3.31-2.49-.35-4.73-2.62-6.17-1.84-1.16-3.79-1.23-5.67-.15-2.15,1.24-3.22,3.25-2.85,5.65.53,3.45-.92,4.05-4.07,3.98-9.22-.22-18.45-.23-27.67,0-3.39.09-4.97-.46-4.59-4.31.3-3.04-1.46-5.28-4.57-5.94-2.63-.56-4.62.68-5.94,2.91-.78,1.33-.77,2.91-.61,4.39.25,2.31-.59,2.96-2.91,2.92-8.48-.14-16.96-.13-25.43-.02-3.27.05-4.46-1.32-4.36-4.49.14-4.36.22-8.74-.03-13.09-.16-2.79.63-3.5,3.45-3.48,23.44.13,46.88.08,70.32.07,4.96,0,6.38-1.14,7.52-5.89Z"/>
  <path class="cls-10" d="M166.26,155.85c-1.24.06-2.48.18-3.72.18-49,0-98-.02-147,.07-3.1,0-4.48-.45-4.17-3.98.37-4.21.19-8.47.05-12.71-.09-2.97.98-4.38,4.09-4.35,8.6.08,17.21.09,25.81-.01,2.1-.02,2.95.59,2.8,2.75-.14,1.99-.1,4.01,1.4,5.64,1.61,1.74,3.63,2.22,5.8,1.58,2.75-.81,4.2-3.01,3.91-5.69-.41-3.9,1.31-4.39,4.66-4.31,9.47.22,18.95.18,28.42.01,2.67-.05,3.34.74,3.26,3.32-.13,4.59,2.19,7.07,5.89,6.87,3.14-.17,5.46-2.47,5.17-6.06-.29-3.66,1.16-4.2,4.36-4.14,9.47.19,18.95.17,28.42,0,2.73-.05,3.67.58,3.59,3.47-.11,4.5,2.09,6.79,5.7,6.73,3.23-.06,5.58-2.19,5.33-5.86-.27-3.89,1.3-4.61,4.69-4.33,3.84.31,7.72.17,11.58.23-.02,6.86-.04,13.72-.07,20.58Z"/>
  <path class="cls-4" d="M207.55,180.34c-5.44-2.62-10.02-6.42-14.47-10.42-1.06-.95-1.55-1.8-.71-3.18,1.83-3.02,1.72-6.4,1.69-9.78-.06-5.98,0-11.96-.02-17.94-.03-9.28-5.51-15.13-14.72-15.06-3.74.03-4.14-1.1-3.18-4.22,1.33-4.28,2.82-8.49,4.78-12.52,2.4-4.92,2.84-4.97,7.12-1.34,4.37,3.7,8.64,7.53,13.17,11.03,18.19,14.03,38.22,24.58,60.15,31.49.82.26,1.6.64,2.39.97-.76,1.28-1.52,2.55-2.29,3.83-6.07,10.16-14.14,18.07-25.16,22.82-9.22,3.97-18.87,4.82-28.75,4.32ZM236.58,159.71c0-3.04-2.69-5.63-5.75-5.58-2.97.06-5.35,2.44-5.43,5.44-.08,3.17,2.34,5.73,5.47,5.76,3.06.03,5.71-2.59,5.71-5.63ZM214.52,140.68c.07-3.17-2.49-5.77-5.6-5.73-2.99.04-5.4,2.47-5.47,5.5-.07,3.09,2.15,5.49,5.24,5.64,3.25.16,5.78-2.19,5.84-5.41Z"/>
  <path class="cls-2" d="M353.38,278.83c1-12.84,2.01-25.68,2.97-38.53.28-3.71.28-7.42.66-11.14.7-6.78.49-13.65.92-20.46.92-14.76.95-29.56,1.68-44.32.77-15.57.53-31.12.4-46.67-.11-12.63-1.09-25.27-2.21-37.87-.73-8.11-2.41-16.13-3.67-24.2,1.24-.06,2.48-.17,3.72-.17,8.52-.03,8.49-.02,9.79,8.53,4.16,27.43,4.68,55.07,4.39,82.73-.41,39.37-2.33,78.67-5.71,117.9-.33,3.85-.71,7.69-.85,11.55-.07,1.97-.52,2.99-2.75,2.84-3.1-.2-6.22-.15-9.33-.2Z"/>
  <path class="cls-5" d="M254.6,229.77c5.78-2.14,11.79-3.69,17.32-6.5,23.66-12,38.46-30.94,43.78-56.93,2.79-13.63-.13-26.62-6.35-38.92-.52-1.03-1.21-1.88-2.18-2.49.46-.58.86-1.21,1.37-1.73,3.14-3.15,3.98-3.16,6.71.33,13.93,17.8,17.98,37.57,9.4,58.61-11.95,29.32-34.26,45.29-65.98,47.79-1.35.11-2.72-.09-4.08-.15Z"/>
  <path class="cls-5" d="M207.55,180.34c9.87.5,19.52-.35,28.75-4.32,11.02-4.74,19.09-12.66,25.16-22.82.76-1.28,1.52-2.55,2.29-3.83,6.05,1.43,12.08,2.94,18.15,4.24,3.5.75,3.51,2.41,2.2,5.27-9.04,19.68-30.27,31.39-52.06,28.64-8.56-1.08-16.86-2.96-24.48-7.19Z"/>
  <path class="cls-5" d="M352.66,44.1c0-8.65-.04-17.31.04-25.96.02-2.41-.41-4.65-1.52-6.77,2.61-.04,5.23-.26,7.82-.07,3.42.26,5.59,2.22,5.65,5.74.12,8.33,0,16.66.1,24.98.02,1.86-.68,2.34-2.39,2.26-3.22-.14-6.45-.13-9.68-.19Z"/>
  <path class="cls-5" d="M351.87,323.11c1.53-2.95,1.61-6.12,1.57-9.36-.09-7.79-.04-15.59-.04-23.39,3.59,0,8.12-1.3,10.52.4,2.35,1.67.63,6.49.73,9.92.15,4.98.05,9.96.03,14.94-.02,5.7-1.93,7.6-7.6,7.61-1.74,0-3.48-.09-5.22-.13Z"/>
  <path class="cls-6" d="M166.26,155.85c.02-6.86.04-13.72.07-20.58,4.44-.63,8.9-.23,13.35-.23,2.03,0,3.18,1.18,3.18,3.31,0,5.21-.04,10.42.03,15.63.02,1.59-.53,2.22-2.14,2.17-4.82-.15-9.65-.2-14.47-.29Z"/>
  <path class="cls-12" d="M170.07,358.23c0-6.89,0-13.78,0-20.68,4.08.01,9.27-1.49,11.93.47,2.55,1.88.71,7.4.77,11.32.15,9.72.83,9.08-8.99,9.03-1.24,0-2.48-.09-3.71-.13Z"/>
  <path class="cls-12" d="M150.43,357.62c.31.21.62.43.93.64-.49.04-1.1.27-.93-.64Z"/>
  <path class="cls-13" d="M154.46,241.33c0,4.99.06,9.97-.02,14.96-.07,4.59-2.72,6.86-7.26,6.18-2.7-.41-5.71-1.63-8.04-.61-2.24.98-2.4,4.39-3.62,6.66-15.59,28.9-54.87,33.19-76.34,8.27-1.21-1.4-2.39-2.2-4.29-2.45-5.44-.72-10.69-2.27-15.84-4.21-3.07-1.16-4.52-3.16-4.5-6.5.08-9.47-.01-18.95.05-28.42.03-4.73,2.66-7.49,7.11-6.1,7.03,2.2,9.88-.42,13.43-6.5,15.67-26.84,53.53-30.04,74.04-6.72,1.65,1.88,3.26,2.7,5.7,2.59,4.5-.21,8.96.43,13.4,1.07,4.81.7,6.15,2.37,6.18,7.19.03,4.86,0,9.72,0,14.59ZM109.48,264.79c-12.05,2.73-23.42,7.82-36.16,9.66,7.03,5.85,17.51,8.66,24.97,7.01,11.38-.52,24.23-9.59,27.57-19.79-5.72.31-11.13,1.23-16.38,3.12ZM96.76,211.78c-13.72-1.21-29.46,7.64-32.85,18.7,14.17-1.27,27.49-5.82,41.07-9.12,3.63-.65,7.26-1.3,11.81-2.11-6.69-4.61-12.81-7.52-20.03-7.47ZM137.16,229.83c-1.24-.06-2.48-.15-3.73-.19-14.9-.45-29.09,3.36-43.27,7.22-13.9,3.79-27.96,6.21-42.42,4.35-2.05-.26-1.94.78-1.94,2.1.01,4.61.23,9.24-.08,13.83-.21,3.05,1.14,3.99,3.74,4.72,13.29,3.73,26.15,1.62,38.87-2.59,15.87-5.25,31.83-9.98,48.82-9.41.61.08,1.25.06,1.83.25,3.85,1.26,4.54-.51,4.31-3.97-.28-4.19-.29-8.44,0-12.63.21-2.91-1.04-3.73-3.55-3.68-.86.02-1.73,0-2.6.01Z"/>
  <path class="cls-11" d="M286.63,205.97c-.1,3.06-2.92,5.66-5.95,5.48-3.01-.18-5.25-2.65-5.19-5.73.06-3.25,2.54-5.55,5.83-5.39,2.98.14,5.41,2.72,5.32,5.64Z"/>
  <path class="cls-11" d="M303.49,181.04c-3.09-.09-5.57-2.77-5.42-5.86.15-3.1,2.84-5.52,5.93-5.33,2.94.18,5.3,2.71,5.25,5.65-.05,3.09-2.7,5.64-5.76,5.55Z"/>
  <path class="cls-11" d="M236.58,159.71c0,3.04-2.65,5.66-5.71,5.63-3.13-.03-5.55-2.59-5.47-5.76.08-3,2.46-5.38,5.43-5.44,3.06-.06,5.75,2.54,5.75,5.58Z"/>
  <path class="cls-11" d="M214.52,140.68c-.07,3.22-2.6,5.56-5.84,5.41-3.08-.15-5.31-2.54-5.24-5.64.07-3.03,2.49-5.46,5.47-5.5,3.12-.04,5.67,2.56,5.6,5.73Z"/>
  <path class="cls-4" d="M137.16,249.85c-16.99-.57-32.95,4.16-48.82,9.41-12.72,4.21-25.58,6.32-38.87,2.59-2.6-.73-3.95-1.68-3.74-4.72.31-4.59.09-9.22.08-13.83,0-1.31-.12-2.36,1.94-2.1,14.47,1.86,28.52-.57,42.42-4.35,14.18-3.86,28.37-7.67,43.27-7.22,1.24.04,2.48.12,3.73.19,0,6.67,0,13.35,0,20.02Z"/>
  <path class="cls-9" d="M104.98,221.37c-13.59,3.29-26.9,7.85-41.07,9.12,3.39-11.06,19.13-19.91,32.85-18.7,2.28,3.59,6.57,5.46,8.22,9.59Z"/>
  <path class="cls-9" d="M98.29,281.46c-7.46,1.65-17.94-1.16-24.97-7.01,12.73-1.84,24.11-6.93,36.16-9.66.11,1.17-.48,2.07-.99,3.09-2.55,5.18-6.68,9.15-10.2,13.58Z"/>
  <path class="cls-7" d="M98.29,281.46c3.52-4.44,7.65-8.4,10.2-13.58.5-1.02,1.09-1.92.99-3.09,5.25-1.89,10.66-2.81,16.38-3.12-3.34,10.2-16.19,19.27-27.57,19.79Z"/>
  <path class="cls-5" d="M137.16,249.85c0-6.67,0-13.35,0-20.02.87,0,1.73,0,2.6-.01,2.51-.05,3.76.77,3.55,3.68-.29,4.19-.29,8.44,0,12.63.23,3.46-.46,5.23-4.31,3.97-.58-.19-1.22-.17-1.83-.25Z"/>
  <path class="cls-7" d="M104.98,221.37c-1.66-4.13-5.94-6-8.22-9.59,7.22-.05,13.34,2.87,20.03,7.47-4.55.81-8.18,1.46-11.81,2.11Z"/>
</svg>