<?xml version="1.0" encoding="UTF-8"?>
<svg id="Capa_1" data-name="Capa 1" xmlns="http://www.w3.org/2000/svg" viewBox="0 0 380.61 380.59">
  <defs>
    <style>
      .cls-1 {
        fill: #a6bbbc;
      }

      .cls-1, .cls-2, .cls-3, .cls-4, .cls-5, .cls-6, .cls-7, .cls-8, .cls-9, .cls-10, .cls-11, .cls-12, .cls-13 {
        stroke-width: 0px;
      }

      .cls-2 {
        fill: #0a0707;
      }

      .cls-3 {
        fill: #101212;
      }

      .cls-4 {
        fill: #ea6e79;
      }

      .cls-5 {
        fill: #e76c78;
      }

      .cls-6 {
        fill: #0c0808;
      }

      .cls-7 {
        fill: #e96d79;
      }

      .cls-8 {
        fill: #e8ecec;
      }

      .cls-9 {
        fill: #090707;
      }

      .cls-10 {
        fill: #1c1515;
      }

      .cls-11 {
        fill: #f1717d;
      }

      .cls-12 {
        fill: #0b0808;
      }

      .cls-13 {
        fill: #f5bdc2;
      }
    </style>
  </defs>
  <path class="cls-9" d="M92.19,380.59c-9.07-3.46-18.37-6.43-27.18-10.47C18.47,348.83-7.61,298.65,1.97,249.41c10.1-51.96,52.07-88.96,104.03-91.7,2.82-.15,5.65-.25,10.92-.49-7.97-7.58-14.14-14.03-4.07-22.85,4.44-3.88-2.05-6.67-4.3-8.96-20.47-20.83-41.3-41.31-61.87-62.04-17.02-17.15-18.62-37.71-4.36-52.52,14.88-15.45,36.02-14.41,53.62,3.09,41.41,41.21,83.2,82.06,123.65,124.19,13.63,14.19,27.15,20.89,47.33,19.94,37.49-1.77,67.99,14.31,91.19,43.84,6.44,8.2,11.09,17.45,15.12,27.07,2.38,5.69,2.27,10.46-2.62,14.61-6.57.23-9.19-3.74-11.52-9.33-3.03-7.24-6.74-14.36-11.22-20.8-20.99-30.21-61.42-47.25-90.98-38.25,22.7,22.58,45.2,44.84,67.53,67.28,3.98,4,10.71,7.3,8.2,14.44-2.52,7.14-10.05,5.28-15.51,6.17-15.76,2.57-31.66,2.06-47.19-1.42-10.6-2.37-14.19-.63-14.24,11.56-.15,33.61-15.14,60.72-40.52,82.38-3.43,2.93-8.35,4.5-10.53,10.04,20.78,0,40.57.08,60.35-.02,44-.22,75.37-20.23,93.58-60.36,2.55-5.62,4.44-11.17,12.06-10.73,5.55,4.67,4.48,9.82,2.03,15.83-9.83,24.06-26.12,42.2-48.29,55.6-12.14,7.34-25.94,9.67-38.86,14.59H92.19ZM187.9,354.45c37.83-16.83,60.33-61.37,52.04-103.04-6.6-33.17-32.92-64.99-55.07-65.85,11.07,9.91,20.23,20.86,26.24,34,22.91,50.09,12.15,93.98-24.88,132.91-1.3,1.02-2.6,2.04-3.91,3.06,2.23,1.55,4.08,1.15,5.57-1.09ZM112.25,172.52c-53.06-.3-96.84,42.64-97.31,95.44-.48,53.63,43.08,97.73,96.57,97.73,52.85,0,96.46-43.43,96.61-96.25.15-52.94-43.05-96.63-95.86-96.92ZM306.84,248.85c-.92-6.24-5.76-8.57-9.03-11.87-34.48-34.71-69.1-69.3-103.74-103.86-9.43-9.41-19.67-26.49-28.49-25.83-10.58.78-20.3,16.52-29.83,26.32-3.36,3.46-11.31,6.33-8.13,11.9,3.62,6.33,8.87,11.94,18.52,12.39,51.79,2.45,86.89,28.38,104.56,77.25,2.05,5.68,4.58,8.83,10.84,9.97,14.9,2.71,29.7,5.56,45.3,3.74ZM66.56,14.95c-7.13.42-13.16,4.16-16.8,11.38-4.36,8.64-2.35,16.47,4.11,23.04,16.99,17.27,34.19,34.33,51.32,51.45,22.09,22.07,21.91,21.89,43.08-.83,4.72-5.07,5.15-7.86.06-12.83-21.92-21.42-43.44-43.25-65.13-64.91-4.33-4.32-9.35-7.25-16.64-7.31Z"/>
  <path class="cls-10" d="M380.61,273.55c-2.77,1.16-5.54,2.32-8.31,3.47-9.11-5.31-9.08-10.61.02-15.89,2.76,1.17,5.52,2.33,8.28,3.5v8.92Z"/>
  <path class="cls-11" d="M372.33,261.14c-9.11,5.28-9.13,10.58-.02,15.89-.57,5.85-1.14,11.7-1.71,17.55-7.62-.44-9.51,5.1-12.06,10.73-18.21,40.12-49.58,60.13-93.58,60.36-19.78.1-39.56.02-60.35.02,2.18-5.54,7.1-7.11,10.53-10.04,25.38-21.66,40.37-48.77,40.52-82.38.05-12.2,3.64-13.93,14.24-11.56,15.54,3.48,31.44,3.98,47.19,1.42,5.46-.89,13,.97,15.51-6.17,2.51-7.14-4.21-10.44-8.2-14.44-22.33-22.43-44.83-44.7-67.53-67.28,29.56-9,69.99,8.05,90.98,38.25,4.47,6.44,8.19,13.56,11.22,20.8,2.34,5.59,4.95,9.56,11.52,9.33.57,5.85,1.15,11.69,1.73,17.53Z"/>
  <path class="cls-13" d="M112.25,172.52c52.81.3,96.01,43.98,95.86,96.92-.15,52.81-43.75,96.25-96.61,96.25-53.48,0-97.05-44.1-96.57-97.73.47-52.8,44.25-95.73,97.31-95.44ZM140.97,336.31c18.33.33,33.36-13.84,33.92-31.96.55-17.68-14.39-33.28-32.32-33.75-18.13-.48-33.19,13.94-33.56,32.14-.38,18.5,13.65,33.24,31.95,33.57ZM133.87,259.12c17.7,0,32.24-14.46,31.99-31.82-.24-17.43-15.02-31.54-32.67-31.2-16.98.32-30.95,14.26-31.22,31.15-.29,17.38,14.22,31.87,31.9,31.87ZM35.22,282.86c-.43,15.96,11.29,28.72,26.99,29.4,16.17.7,29.82-12.17,29.95-28.24.12-15.58-12.36-28.31-28.04-28.6-15.96-.3-28.47,11.58-28.9,27.44ZM69.63,217.21c-4.18,1.14-7.27,3.64-6.57,8.26.66,4.36,3.69,7.04,8.42,6.25,3.87-.65,6.1-3.35,5.93-7.28-.2-4.66-3.11-6.95-7.78-7.24Z"/>
  <path class="cls-8" d="M306.84,248.85c-15.6,1.82-30.4-1.03-45.3-3.74-6.27-1.14-8.79-4.29-10.84-9.97-17.66-48.87-52.77-74.8-104.56-77.25-9.64-.46-14.9-6.06-18.52-12.39-3.18-5.57,4.76-8.44,8.13-11.9,9.53-9.8,19.25-25.53,29.83-26.32,8.82-.65,19.06,16.43,28.49,25.83,34.64,34.56,69.26,69.14,103.74,103.86,3.28,3.3,8.12,5.63,9.03,11.87Z"/>
  <path class="cls-1" d="M66.56,14.95c7.3.06,12.32,2.99,16.64,7.31,21.69,21.66,43.21,43.49,65.13,64.91,5.09,4.97,4.66,7.76-.06,12.83-21.17,22.72-20.99,22.91-43.08.83-17.14-17.12-34.34-34.19-51.32-51.45-6.46-6.57-8.47-14.41-4.11-23.04,3.64-7.22,9.67-10.96,16.8-11.38ZM69.37,29.25c-4.13.41-7.04,2.43-7.01,7.22.02,4.01,2.54,6.44,6.19,6.87,4.49.53,7.63-2.14,8.08-6.47.47-4.53-2.45-7.02-7.25-7.62Z"/>
  <path class="cls-5" d="M186.22,352.47c37.04-38.92,47.8-82.82,24.89-132.9-6.01-13.14-15.18-24.09-26.24-34,22.15.86,48.47,32.68,55.07,65.85,8.29,41.66-14.21,86.21-52.04,103.04-.57-.65-1.13-1.31-1.67-1.98Z"/>
  <path class="cls-5" d="M187.9,354.45c-1.49,2.24-3.34,2.64-5.57,1.09,1.3-1.02,2.6-2.04,3.9-3.06.55.66,1.1,1.32,1.67,1.97Z"/>
  <path class="cls-6" d="M140.97,336.31c-18.3-.33-32.33-15.07-31.95-33.57.37-18.2,15.43-32.61,33.56-32.14,17.93.47,32.87,16.06,32.32,33.75-.56,18.12-15.6,32.29-33.92,31.96ZM140.93,285.37c-10.45,1.77-17.18,7.49-16.73,18.76.45,11.12,6.95,17.4,18.19,17.06,11.32-.35,17.52-7.6,17.21-18.26-.32-10.77-7.45-16.69-18.67-17.56Z"/>
  <path class="cls-12" d="M133.87,259.12c-17.68,0-32.19-14.49-31.9-31.87.28-16.9,14.24-30.83,31.22-31.15,17.65-.34,32.43,13.78,32.67,31.2.24,17.36-14.3,31.82-31.99,31.82ZM134.73,210.92c-11.14.38-17.39,6.55-17.54,16.62-.14,9.25,5.31,15.98,15.48,16.56,10.84.62,17.3-5.58,17.86-15.65.57-10.17-5.61-16.4-15.8-17.54Z"/>
  <path class="cls-2" d="M35.22,282.86c.43-15.86,12.94-27.73,28.9-27.44,15.68.29,28.16,13.02,28.04,28.6-.13,16.06-13.78,28.94-29.95,28.24-15.7-.68-27.42-13.44-26.99-29.4ZM63.46,297.61c7.87-.84,13.48-5.16,13.58-13.81.08-7.83-4.58-12.94-12.74-13.32-8.04-.38-13.21,3.71-13.97,11.87-.83,8.85,3.93,13.65,13.13,15.26Z"/>
  <path class="cls-10" d="M69.63,217.21c4.67.29,7.58,2.57,7.78,7.24.17,3.92-2.06,6.63-5.93,7.28-4.73.79-7.76-1.9-8.42-6.25-.7-4.62,2.39-7.12,6.57-8.26Z"/>
  <path class="cls-3" d="M69.37,29.25c4.8.59,7.73,3.09,7.25,7.62-.45,4.33-3.59,7-8.08,6.47-3.65-.43-6.16-2.85-6.19-6.87-.03-4.8,2.88-6.82,7.01-7.22Z"/>
  <path class="cls-4" d="M140.93,285.37c11.22.87,18.35,6.78,18.67,17.56.32,10.67-5.88,17.91-17.21,18.26-11.24.35-17.74-5.94-18.19-17.06-.45-11.27,6.28-17,16.73-18.76Z"/>
  <path class="cls-5" d="M134.73,210.92c10.19,1.13,16.37,7.36,15.8,17.54-.56,10.07-7.01,16.27-17.86,15.65-10.18-.59-15.62-7.32-15.48-16.56.15-10.07,6.4-16.24,17.54-16.62Z"/>
  <path class="cls-7" d="M63.46,297.61c-9.2-1.61-13.96-6.4-13.13-15.26.76-8.16,5.94-12.25,13.97-11.87,8.16.38,12.82,5.5,12.74,13.32-.09,8.65-5.71,12.97-13.58,13.81Z"/>
</svg>